<svg width="148" height="110" viewBox="0 0 148 110" fill="none" xmlns="http://www.w3.org/2000/svg">
<g id="analytics/amico">
<g id="Floor">
<path id="Vector" d="M21.6367 98.2677C50.4824 113.339 97.2559 113.339 126.108 98.2677C154.96 83.1968 154.957 58.7621 126.108 43.6912C97.2591 28.6202 50.4888 28.6202 21.6367 43.6912C-7.21545 58.7621 -7.209 83.2097 21.6367 98.2677Z" fill="#DED5F3"/>
</g>
<g id="Shadows">
<path id="Vector_2" d="M19.9987 73.0561C24.091 73.0561 27.4084 71.4753 27.4084 69.5254C27.4084 67.5754 24.091 65.9946 19.9987 65.9946C15.9064 65.9946 12.589 67.5754 12.589 69.5254C12.589 71.4753 15.9064 73.0561 19.9987 73.0561Z" fill="#EBEBEB"/>
<path id="Vector_3" d="M104.556 77.7703C110.018 77.7703 114.445 75.6597 114.445 73.0561C114.445 70.4526 110.018 68.342 104.556 68.342C99.0942 68.342 94.6666 70.4526 94.6666 73.0561C94.6666 75.6597 99.0942 77.7703 104.556 77.7703Z" fill="#EBEBEB"/>
</g>
<g id="Plants">
<path id="Vector_4" d="M134.121 53.6613C134.121 53.6613 134.885 51.301 137.371 48.7859C138.467 47.6767 139.183 46.9029 138.954 46.2419C138.748 45.6583 138.051 45.3552 137.055 45.8259C135.639 46.4966 134.685 47.7412 134.121 50.2402V53.6613Z" fill="#7E57C2"/>
<path id="Vector_5" opacity="0.1" d="M134.121 53.6613C134.121 53.6613 134.885 51.301 137.371 48.7859C138.467 47.6767 139.183 46.9029 138.954 46.2419C138.748 45.6583 138.051 45.3552 137.055 45.8259C135.639 46.4966 134.685 47.7412 134.121 50.2402V53.6613Z" fill="black"/>
<path id="Vector_6" d="M133.963 52.178H133.934C133.903 52.1697 133.876 52.1495 133.86 52.1217C133.843 52.094 133.839 52.0609 133.847 52.0297C134.733 48.6054 137.026 46.4837 137.996 45.9936C138.026 45.9799 138.059 45.9779 138.09 45.9881C138.12 45.9983 138.146 46.0199 138.161 46.0484C138.174 46.0771 138.176 46.11 138.166 46.1401C138.156 46.1702 138.134 46.1951 138.106 46.2096C137.168 46.6836 134.946 48.7473 134.082 52.091C134.074 52.1165 134.058 52.1388 134.037 52.1545C134.015 52.1702 133.989 52.1785 133.963 52.178Z" fill="white"/>
<path id="Vector_7" d="M134.121 56.5925C134.121 56.5925 135.181 54.5127 136.462 53.4067C137.742 52.3007 139.386 51.1722 137.993 50.308C136.6 49.4439 134.308 51.1399 134.124 52.8134L134.121 56.5925Z" fill="#7E57C2"/>
<path id="Vector_8" d="M133.963 55.1123H133.937C133.906 55.1046 133.879 55.0851 133.862 55.058C133.845 55.0309 133.84 54.9983 133.847 54.9672C134.45 52.3876 136.613 50.9302 137.332 50.6883C137.362 50.6822 137.393 50.6872 137.419 50.7025C137.445 50.7178 137.465 50.7422 137.474 50.771C137.483 50.7999 137.481 50.8311 137.469 50.8587C137.456 50.8863 137.434 50.9083 137.406 50.9205C136.762 51.1398 134.653 52.5746 134.082 55.022C134.075 55.0481 134.059 55.0711 134.038 55.0874C134.016 55.1038 133.99 55.1125 133.963 55.1123Z" fill="white"/>
<path id="Vector_9" d="M39.8192 77.4963C39.8192 77.4963 39.3291 76.4065 37.2816 75.9454C35.2889 75.4972 34.299 75.9454 32.9544 75.7132C31.6098 75.4811 31.9613 72.9693 35.5791 73.2304C38.8906 73.469 39.8192 76.0744 39.8192 76.0744V77.4963Z" fill="#7E57C2"/>
<path id="Vector_10" d="M40.0159 76.8965C39.9924 76.896 39.9696 76.8887 39.9502 76.8755C39.9307 76.8624 39.9155 76.8439 39.9062 76.8224C39.5838 76.0517 38.3908 74.7942 36.7108 74.4105C34.6246 73.9365 33.5154 74.4105 33.5058 74.4105C33.4769 74.4202 33.4455 74.4189 33.4176 74.4067C33.3897 74.3945 33.3673 74.3724 33.3548 74.3446C33.3423 74.3168 33.3406 74.2854 33.3501 74.2565C33.3595 74.2275 33.3794 74.2031 33.4058 74.188C33.4542 74.1687 34.6021 73.6689 36.7624 74.1622C38.6294 74.5878 39.8192 75.955 40.1287 76.7192C40.1351 76.7338 40.1384 76.7495 40.1386 76.7654C40.1387 76.7813 40.1357 76.797 40.1297 76.8118C40.1237 76.8265 40.1148 76.8398 40.1036 76.8511C40.0923 76.8623 40.079 76.8712 40.0642 76.8772L40.0159 76.8965Z" fill="white"/>
<path id="Vector_11" d="M39.8192 76.2549C39.4111 75.5241 38.8885 74.8633 38.2715 74.2977C36.3368 72.4211 33.7573 71.831 32.4675 70.8056C31.0488 69.6996 32.7674 68.4228 34.5924 68.5034C35.6371 68.5518 36.7399 69.2418 37.3461 69.7383C39.4806 71.4827 39.8321 74.2977 39.8321 74.2977L39.8192 76.2549Z" fill="#7E57C2"/>
<path id="Vector_12" opacity="0.5" d="M39.8192 76.2549C39.4111 75.5241 38.8885 74.8633 38.2715 74.2977C36.3368 72.4211 33.7573 71.831 32.4675 70.8056C31.0488 69.6996 32.7674 68.4228 34.5924 68.5034C35.6371 68.5518 36.7399 69.2418 37.3461 69.7383C39.4806 71.4827 39.8321 74.2977 39.8321 74.2977L39.8192 76.2549Z" fill="white"/>
<path id="Vector_13" d="M40.0159 76.0645C39.987 76.0641 39.9593 76.0535 39.9374 76.0347C39.9156 76.0158 39.9012 75.9898 39.8966 75.9613C39.6425 74.6057 39.0276 73.3436 38.1167 72.308C36.5948 70.5765 33.9927 69.6479 33.9637 69.6382C33.9342 69.6273 33.9101 69.6054 33.8963 69.5772C33.8825 69.549 33.8801 69.5166 33.8895 69.4867C33.8946 69.4715 33.9026 69.4575 33.9132 69.4454C33.9238 69.4334 33.9367 69.4237 33.9511 69.4167C33.9656 69.4098 33.9813 69.4059 33.9973 69.4052C34.0133 69.4044 34.0293 69.4069 34.0443 69.4125C34.1539 69.448 36.7334 70.3798 38.2973 72.1468C39.2457 73.2153 39.8825 74.5235 40.1384 75.9291C40.1407 75.945 40.1397 75.9612 40.1355 75.9768C40.1313 75.9923 40.124 76.0068 40.1141 76.0195C40.1042 76.0321 40.0918 76.0426 40.0777 76.0504C40.0636 76.0581 40.048 76.0629 40.032 76.0645H40.0159Z" fill="white"/>
<path id="Vector_14" d="M84.0712 96.2947C84.0712 96.2947 84.6193 95.2306 86.6894 94.8791C88.7015 94.5373 89.6656 95.0242 91.023 94.8791C92.3805 94.734 92.1613 92.19 88.5338 92.2577C85.2159 92.3189 84.1486 94.8695 84.1486 94.8695L84.0712 96.2947Z" fill="#7E57C2"/>
<path id="Vector_15" opacity="0.1" d="M84.0712 96.2947C84.0712 96.2947 84.6193 95.2306 86.6894 94.8791C88.7015 94.5373 89.6656 95.0242 91.023 94.8791C92.3805 94.734 92.1613 92.19 88.5338 92.2577C85.2159 92.3189 84.1486 94.8695 84.1486 94.8695L84.0712 96.2947Z" fill="black"/>
<path id="Vector_16" d="M83.9132 95.7853C83.888 95.7842 83.8635 95.7764 83.8423 95.7627C83.8292 95.7537 83.8181 95.7422 83.8096 95.7288C83.8011 95.7155 83.7953 95.7006 83.7926 95.6849C83.7899 95.6693 83.7903 95.6533 83.7939 95.6379C83.7974 95.6225 83.804 95.6079 83.8132 95.595C84.5839 94.4923 85.9865 93.6604 87.5697 93.3831C89.6043 93.0187 90.7941 93.6636 90.8457 93.7055C90.8595 93.7131 90.8716 93.7234 90.8814 93.7357C90.8912 93.748 90.8985 93.7621 90.9028 93.7773C90.9071 93.7924 90.9085 93.8082 90.9067 93.8238C90.9049 93.8395 90.9001 93.8546 90.8925 93.8684C90.8848 93.8821 90.8746 93.8942 90.8623 93.904C90.85 93.9138 90.8358 93.9211 90.8207 93.9254C90.8056 93.9298 90.7898 93.9311 90.7741 93.9293C90.7585 93.9276 90.7434 93.9227 90.7296 93.9151C90.7296 93.9151 89.5592 93.2863 87.6116 93.6346C86.0929 93.9054 84.7451 94.6954 84.0132 95.7466C84.0002 95.7598 83.9846 95.7701 83.9674 95.7768C83.9501 95.7835 83.9317 95.7864 83.9132 95.7853Z" fill="white"/>
<path id="Vector_17" d="M84.2163 94.8017C84.6845 94.2127 85.2166 93.6774 85.8027 93.2057C87.8438 91.4387 90.4265 91.1517 91.7937 90.1973C93.2705 89.1687 91.6228 87.8015 89.7945 87.7854C88.7498 87.7854 87.6116 88.4077 86.9764 88.872C85.6228 89.8862 84.6105 91.2888 84.0744 92.8929L84.2163 94.8017Z" fill="#7E57C2"/>
<path id="Vector_18" opacity="0.5" d="M84.2163 94.8017C84.6845 94.2127 85.2166 93.6774 85.8027 93.2057C87.8438 91.4387 90.4265 91.1517 91.7937 90.1973C93.2705 89.1687 91.6228 87.8015 89.7945 87.7854C88.7498 87.7854 87.6116 88.4077 86.9764 88.872C85.6228 89.8862 84.6105 91.2888 84.0744 92.8929L84.2163 94.8017Z" fill="white"/>
<path id="Vector_19" d="M83.9132 94.776H83.868C83.8385 94.765 83.8142 94.7433 83.7998 94.7153C83.7855 94.6872 83.7822 94.6548 83.7907 94.6244C84.2946 93.2404 85.0908 91.9811 86.1251 90.9325C87.2471 89.7754 88.7045 89.0005 90.2911 88.7173C90.3066 88.715 90.3224 88.7159 90.3376 88.7199C90.3527 88.724 90.3669 88.731 90.3792 88.7406C90.3916 88.7503 90.4019 88.7623 90.4094 88.776C90.417 88.7898 90.4217 88.8049 90.4233 88.8205C90.4255 88.8364 90.4246 88.8526 90.4204 88.8681C90.4162 88.8837 90.4089 88.8982 90.399 88.9109C90.389 88.9235 90.3766 88.934 90.3625 88.9418C90.3484 88.9495 90.3329 88.9543 90.3169 88.9559C88.7893 89.2458 87.3865 89.995 86.296 91.1033C85.2943 92.1233 84.5244 93.3474 84.0389 94.6921C84.0304 94.7182 84.0133 94.7406 83.9905 94.7557C83.9677 94.7709 83.9405 94.7781 83.9132 94.776Z" fill="white"/>
</g>
<g id="bar-charts">
<path id="Vector_20" d="M52.9136 77.767V53.4065H39.8192V77.7702C39.8192 78.7376 40.4641 79.7049 41.7539 80.4401C44.3109 81.9168 48.4575 81.9168 51.0144 80.4401C52.3042 79.7017 52.9297 78.7376 52.933 77.7702L52.9136 77.767Z" fill="#37474F"/>
<path id="Vector_21" d="M41.7378 56.244C39.1776 54.7672 39.1776 52.3747 41.7378 50.8947C44.298 49.4147 48.4413 49.4179 50.9983 50.8947C53.5553 52.3715 53.5553 54.764 50.9983 56.244C48.4413 57.724 44.2947 57.7176 41.7378 56.244Z" fill="#455A64"/>
<path id="Vector_22" d="M68.6327 86.8437V69.1094H55.535V86.8437C55.535 87.811 56.1799 88.7784 57.4697 89.5135C60.0267 90.9903 64.1733 90.9903 66.7302 89.5135C68.02 88.7784 68.6488 87.811 68.6488 86.8437H68.6327Z" fill="#37474F"/>
<path id="Vector_23" d="M57.4536 71.9501C54.8966 70.4733 54.8966 68.0808 57.4536 66.6007C60.0106 65.1207 64.1572 65.124 66.7141 66.6007C69.2711 68.0775 69.2743 70.47 66.7141 71.9501C64.154 73.4301 60.0073 73.4397 57.4536 71.9501Z" fill="#455A64"/>
<path id="Vector_24" d="M84.3518 95.9173V82.1458H71.2542V95.9205C71.2542 96.8878 71.8991 97.8551 73.1888 98.5935C75.7458 100.07 79.8924 100.07 82.4494 98.5935C83.7391 97.8551 84.3647 96.8878 84.3679 95.9205L84.3518 95.9173Z" fill="#37474F"/>
<path id="Vector_25" d="M77.803 86.086C81.4198 86.086 84.3518 84.3926 84.3518 82.3037C84.3518 80.2148 81.4198 78.5215 77.803 78.5215C74.1862 78.5215 71.2542 80.2148 71.2542 82.3037C71.2542 84.3926 74.1862 86.086 77.803 86.086Z" fill="#455A64"/>
<path id="Vector_26" d="M38.9809 86.3567L35.8887 84.5736L37.6008 82.3552C37.8201 82.0714 37.7169 81.9166 37.3719 82.0037L33.2704 83.0613L30.1782 81.275C29.9184 81.143 29.6312 81.0742 29.3398 81.0742C29.0485 81.0742 28.7613 81.143 28.5015 81.275L23.6294 84.0802C23.1651 84.3479 23.1651 84.7799 23.6294 85.0476L32.4321 90.1293C32.6918 90.2612 32.9791 90.33 33.2704 90.33C33.5618 90.33 33.849 90.2612 34.1088 90.1293L38.9809 87.3143C39.442 87.0564 39.442 86.6243 38.9809 86.3567Z" fill="#7E57C2"/>
<path id="Vector_27" d="M34.0346 85.2637C34.085 85.2587 34.1358 85.2587 34.1861 85.2637C34.2362 85.27 34.2845 85.2865 34.328 85.3121L34.7698 85.5668C34.7996 85.5813 34.8227 85.6067 34.8343 85.6377C34.8343 85.6635 34.8343 85.6861 34.7891 85.7022C34.7786 85.7051 34.7674 85.7051 34.7569 85.7022C34.741 85.7059 34.7244 85.7059 34.7085 85.7022L28.5821 86.1859H28.408C28.3577 86.1783 28.3095 86.1608 28.2661 86.1343L27.8244 85.8796C27.7946 85.8651 27.7715 85.8397 27.7599 85.8086C27.7599 85.7828 27.7599 85.7603 27.805 85.7441C27.8156 85.7413 27.8267 85.7413 27.8373 85.7441H27.8856L34.0346 85.2637ZM32.0613 84.8542C31.9302 84.9417 31.7934 85.0204 31.6518 85.0896C31.5374 85.1477 31.4175 85.1941 31.2938 85.2282C31.1642 85.261 31.0309 85.2772 30.8972 85.2766C30.5988 85.2773 30.3057 85.1971 30.0492 85.0444C29.9268 84.9845 29.8173 84.9013 29.7268 84.7994C29.668 84.7323 29.6349 84.6467 29.6333 84.5575C29.6345 84.4734 29.6653 84.3923 29.7203 84.3286C29.7845 84.2454 29.8631 84.1744 29.9525 84.119C30.0136 84.0748 30.0772 84.0339 30.1427 83.9965C30.204 83.961 30.2781 83.9223 30.3588 83.8836C30.4748 83.8252 30.597 83.7798 30.7231 83.7482C30.991 83.6816 31.2711 83.6816 31.5389 83.7482C31.6879 83.7886 31.8309 83.8482 31.9645 83.9256C32.0808 83.9863 32.1839 84.0696 32.2676 84.1706C32.3271 84.2375 32.3613 84.323 32.3643 84.4124C32.3602 84.496 32.3297 84.5762 32.2773 84.6414C32.2182 84.7244 32.1451 84.7964 32.0613 84.8542ZM32.6707 87.3757C32.5458 87.4689 32.4143 87.553 32.2773 87.6272C32.1621 87.6851 32.041 87.7305 31.9162 87.7626C31.787 87.7982 31.6535 87.8156 31.5196 87.8142C31.3768 87.8136 31.2348 87.7941 31.0972 87.7562C30.9478 87.7183 30.8046 87.6597 30.6715 87.5821C30.5565 87.5194 30.4538 87.4364 30.3684 87.337C30.309 87.2691 30.2758 87.1822 30.2749 87.0919C30.2775 87.0086 30.3069 86.9283 30.3588 86.863C30.4244 86.7809 30.5041 86.711 30.5941 86.6566C30.654 86.6106 30.7177 86.5696 30.7844 86.5341C30.8539 86.4919 30.9261 86.4542 31.0004 86.4213C31.1154 86.3628 31.2365 86.3174 31.3616 86.2858C31.4914 86.254 31.6245 86.2367 31.7582 86.2342C32.0555 86.2341 32.3474 86.3143 32.603 86.4664C32.7259 86.5254 32.8356 86.6088 32.9254 86.7115C32.9823 86.7767 33.0137 86.8603 33.0137 86.9468C33.0137 87.0334 32.9823 87.117 32.9254 87.1822C32.8521 87.2607 32.7659 87.3261 32.6707 87.3757ZM30.6167 84.4737C30.5526 84.51 30.5001 84.5636 30.4652 84.6285C30.4652 84.6736 30.4652 84.7188 30.5587 84.7639C30.6284 84.8062 30.7096 84.8254 30.7908 84.8187C30.8845 84.8039 30.975 84.7734 31.0585 84.7284C31.1807 84.6699 31.2982 84.6019 31.4099 84.5253C31.4756 84.49 31.5294 84.4362 31.5647 84.3705C31.5647 84.3254 31.5486 84.2802 31.4712 84.2351C31.4006 84.1924 31.3178 84.1743 31.2358 84.1835C31.1432 84.1966 31.0537 84.2261 30.9714 84.2706C30.8482 84.3243 30.7296 84.3879 30.6167 84.4608V84.4737ZM31.2294 86.9952C31.1637 87.0305 31.1099 87.0843 31.0746 87.15C31.0746 87.1919 31.0746 87.237 31.1681 87.2822C31.2378 87.3272 31.321 87.3466 31.4035 87.337C31.4957 87.3224 31.585 87.293 31.6679 87.2499C31.7915 87.1921 31.9101 87.1241 32.0226 87.0468C32.0875 87.0116 32.1403 86.9577 32.1741 86.892C32.1741 86.8469 32.1741 86.8017 32.0806 86.7566C32.0109 86.7143 31.9297 86.6952 31.8484 86.7018C31.7557 86.7162 31.6662 86.7468 31.584 86.7921C31.4609 86.8458 31.3423 86.9094 31.2294 86.9823V86.9952Z" fill="white"/>
<path id="Vector_28" d="M56.0123 96.1848L52.9136 94.3984L54.6258 92.1832C54.8418 91.8995 54.7387 91.7415 54.3936 91.8318L50.2922 92.8862L47.2 91.1031C46.9408 90.9711 46.6541 90.9023 46.3632 90.9023C46.0724 90.9023 45.7857 90.9711 45.5265 91.1031L40.6608 93.9148C40.1997 94.1824 40.1997 94.6177 40.6608 94.8821L49.4635 99.967C49.7237 100.097 50.0108 100.165 50.3018 100.165C50.5929 100.165 50.88 100.097 51.1402 99.967L56.0123 97.1521C56.4766 96.8845 56.4766 96.4524 56.0123 96.1848Z" fill="#7E57C2"/>
<path id="Vector_29" d="M51.066 95.0919H51.2208C51.271 95.0999 51.3191 95.1175 51.3627 95.1435L51.8012 95.3982C51.8399 95.4208 51.8625 95.4434 51.8657 95.4692C51.8689 95.495 51.8657 95.5143 51.8238 95.5337C51.8132 95.536 51.8022 95.536 51.7915 95.5337H51.7432L45.6168 96.0173C45.5653 96.0223 45.5135 96.0223 45.462 96.0173C45.4116 96.0102 45.3633 95.9926 45.3201 95.9657L44.8816 95.7142C44.8429 95.6916 44.8203 95.6659 44.8171 95.6433C44.816 95.629 44.8195 95.6148 44.8271 95.6026C44.8346 95.5904 44.8458 95.581 44.859 95.5756H44.8913H44.9396L51.066 95.0919ZM49.0927 94.6824C48.9632 94.7706 48.8274 94.8493 48.6864 94.9178C48.5712 94.9757 48.4502 95.0211 48.3253 95.0532C48.1961 95.0886 48.0626 95.106 47.9287 95.1048C47.7859 95.1042 47.6439 95.0847 47.5063 95.0468C47.357 95.0089 47.2137 94.9503 47.0807 94.8727C46.9647 94.8099 46.861 94.7269 46.7743 94.6276C46.7159 94.5625 46.6835 94.4781 46.6835 94.3906C46.6835 94.3031 46.7159 94.2187 46.7743 94.1536C46.8395 94.0722 46.918 94.0025 47.0065 93.9472C47.0674 93.9026 47.1309 93.8617 47.1967 93.8247C47.2677 93.7832 47.3409 93.7455 47.416 93.7119C47.531 93.6534 47.6521 93.608 47.7771 93.5764C47.9858 93.5233 48.2028 93.5119 48.4158 93.5429C48.6289 93.5739 48.8337 93.6467 49.0185 93.757C49.1352 93.8187 49.2391 93.9018 49.3249 94.0021C49.3841 94.0688 49.4173 94.1546 49.4184 94.2439C49.4159 94.3278 49.3852 94.4084 49.3313 94.4728C49.2652 94.5567 49.1844 94.6277 49.0927 94.6824ZM49.7053 97.2039C49.5744 97.2916 49.4376 97.3703 49.2958 97.4393C49.182 97.4977 49.0619 97.5431 48.9379 97.5747C48.8083 97.6075 48.675 97.6237 48.5413 97.6231C48.2429 97.6238 47.9498 97.5435 47.6933 97.3909C47.5769 97.3303 47.473 97.2482 47.387 97.1491C47.3275 97.0812 47.2943 96.9943 47.2935 96.904C47.2972 96.8204 47.3277 96.7401 47.3805 96.6751C47.4456 96.5927 47.524 96.5218 47.6127 96.4655C47.6772 96.4204 47.7417 96.3817 47.8029 96.343C47.8642 96.3043 47.9384 96.2688 48.019 96.2301C48.135 96.1717 48.2572 96.1263 48.3833 96.0947C48.5135 96.0651 48.6464 96.0489 48.7799 96.0463C48.9215 96.0459 49.0624 96.0643 49.1991 96.1012C49.3487 96.1396 49.4921 96.1993 49.6247 96.2785C49.7413 96.3402 49.8453 96.4233 49.931 96.5236C49.9893 96.5881 50.0215 96.672 50.0215 96.7589C50.0215 96.8459 49.9893 96.9297 49.931 96.9943C49.868 97.0762 49.7917 97.1471 49.7053 97.2039ZM47.6514 94.3019C47.5857 94.3372 47.5319 94.3911 47.4966 94.4567C47.4966 94.4986 47.5127 94.5438 47.5901 94.5889C47.6598 94.6339 47.7431 94.6533 47.8255 94.6437C47.9176 94.6286 48.0068 94.5993 48.0899 94.5567C48.2142 94.4989 48.333 94.4299 48.4446 94.3503C48.509 94.316 48.5618 94.2632 48.5961 94.1987C48.5961 94.1536 48.58 94.1085 48.5026 94.0633C48.4336 94.0195 48.3518 94.0002 48.2705 94.0085C48.1767 94.0228 48.0861 94.0534 48.0028 94.0988C47.8807 94.1525 47.7631 94.2161 47.6514 94.289V94.3019ZM48.2608 96.8234C48.1977 96.8596 48.1454 96.9119 48.1093 96.975C48.1093 97.0201 48.1254 97.0653 48.2028 97.1104C48.2718 97.1542 48.3536 97.1735 48.4349 97.1652C48.5282 97.1507 48.6186 97.1213 48.7025 97.0782C48.8246 97.018 48.942 96.949 49.054 96.8718C49.1186 96.8365 49.1721 96.784 49.2088 96.7202C49.2249 96.6751 49.2088 96.63 49.1153 96.5848C49.0449 96.5412 48.9622 96.522 48.8799 96.53C48.7878 96.5451 48.6985 96.5745 48.6155 96.6171C48.4932 96.6738 48.3747 96.7384 48.2608 96.8105V96.8234Z" fill="white"/>
<path id="Vector_30" d="M73.0308 106.006L69.9386 104.223L71.6539 102.002C71.87 101.721 71.7668 101.563 71.4218 101.653L67.3203 102.708L64.2281 100.925C63.9684 100.793 63.6811 100.724 63.3898 100.724C63.0984 100.724 62.8112 100.793 62.5514 100.925L57.6793 103.749C57.2182 104.017 57.2182 104.452 57.6793 104.717L66.482 109.801C66.7422 109.932 67.0292 110 67.3203 110C67.6114 110 67.8985 109.932 68.1587 109.801L73.0308 106.974C73.4951 106.716 73.4951 106.284 73.0308 106.006Z" fill="#7E57C2"/>
<path id="Vector_31" d="M68.0845 104.923H68.2361C68.2863 104.931 68.3346 104.948 68.3779 104.975L68.8197 105.229C68.8584 105.252 68.881 105.274 68.8842 105.3C68.8874 105.326 68.8842 105.345 68.8423 105.365H68.81H68.7616L62.6352 105.848C62.5848 105.853 62.5341 105.853 62.4837 105.848C62.4332 105.842 62.3848 105.824 62.3418 105.797L61.9033 105.545C61.8646 105.523 61.842 105.497 61.8388 105.474C61.8377 105.46 61.8412 105.446 61.8488 105.434C61.8563 105.422 61.8675 105.412 61.8807 105.407H61.913C61.9289 105.403 61.9454 105.403 61.9613 105.407L68.0845 104.923ZM66.1112 104.514C65.981 104.602 65.844 104.681 65.7017 104.749C65.5878 104.807 65.4678 104.853 65.3438 104.884C65.2146 104.92 65.0811 104.937 64.9472 104.936C64.8034 104.935 64.6603 104.916 64.5215 104.878C64.3732 104.84 64.231 104.782 64.0991 104.704C63.9832 104.641 63.8795 104.558 63.7928 104.459C63.7333 104.391 63.7002 104.304 63.6993 104.214C63.703 104.13 63.7335 104.05 63.7864 103.985C63.8523 103.903 63.9306 103.832 64.0185 103.775C64.083 103.73 64.1475 103.691 64.2088 103.656C64.27 103.62 64.3442 103.582 64.4248 103.54C64.662 103.424 64.9217 103.361 65.1858 103.356C65.483 103.357 65.7746 103.437 66.0306 103.588C66.1472 103.65 66.2511 103.733 66.3369 103.833C66.3952 103.9 66.4282 103.986 66.4304 104.075C66.4263 104.159 66.3958 104.239 66.3433 104.304C66.2792 104.387 66.2005 104.458 66.1112 104.514ZM66.7206 107.035C66.5903 107.122 66.4546 107.201 66.3143 107.27C66.2002 107.328 66.0802 107.374 65.9564 107.406C65.6866 107.474 65.4039 107.474 65.1342 107.406C64.9858 107.367 64.8436 107.307 64.7118 107.228C64.5888 107.17 64.4791 107.086 64.3893 106.983C64.3296 106.917 64.2963 106.831 64.2958 106.742C64.2977 106.658 64.3271 106.578 64.3797 106.513C64.4467 106.431 64.5262 106.36 64.615 106.303C64.6762 106.259 64.7397 106.218 64.8053 106.181C64.8665 106.145 64.9407 106.106 65.0213 106.068C65.2567 105.947 65.5176 105.884 65.7823 105.884C65.9238 105.883 66.0648 105.902 66.2015 105.939C66.3499 105.978 66.4921 106.037 66.6239 106.116C66.7468 106.175 66.8565 106.258 66.9463 106.361C67.0061 106.428 67.0393 106.514 67.0398 106.603C67.038 106.686 67.0085 106.767 66.956 106.832C66.8899 106.913 66.8103 106.982 66.7206 107.035ZM64.6666 104.133C64.6025 104.169 64.55 104.223 64.5151 104.288C64.5151 104.33 64.5312 104.375 64.6086 104.42C64.6778 104.463 64.7594 104.483 64.8408 104.475C64.934 104.46 65.0244 104.431 65.1084 104.388C65.2323 104.329 65.351 104.26 65.4631 104.181C65.5275 104.147 65.5803 104.094 65.6146 104.03C65.6307 103.985 65.6146 103.94 65.5211 103.894C65.4508 103.851 65.3681 103.832 65.2857 103.84C65.1931 103.855 65.1037 103.885 65.0213 103.93C64.8985 103.984 64.7799 104.048 64.6666 104.12V104.133ZM65.2793 106.655C65.2155 106.691 65.1622 106.743 65.1245 106.806C65.1245 106.851 65.1245 106.896 65.2212 106.942C65.2903 106.985 65.372 107.005 65.4534 106.996C65.5456 106.982 65.6349 106.952 65.7178 106.909C65.8408 106.849 65.9594 106.78 66.0725 106.703C66.137 106.668 66.1906 106.615 66.2273 106.551C66.2444 106.506 66.2122 106.461 66.1305 106.416C66.0615 106.372 65.9797 106.353 65.8984 106.361C65.8061 106.376 65.7168 106.405 65.634 106.448C65.511 106.507 65.3925 106.575 65.2793 106.651V106.655Z" fill="white"/>
<path id="Vector_32" d="M117.096 52.8131L111.856 49.7886V34.6628L117.096 37.6873V52.8131Z" fill="#37474F"/>
<path id="Vector_33" d="M117.096 52.8131L122.335 49.7886V34.6628L117.096 37.6873V52.8131Z" fill="#455A64"/>
<path id="Vector_34" d="M111.856 34.6627L117.096 37.6872L122.335 34.6627L117.096 31.6382L111.856 34.6627Z" fill="#455A64"/>
<path id="Vector_35" d="M105.307 46.0062L100.068 42.9817V12.7334L105.307 15.7579V46.0062Z" fill="#37474F"/>
<path id="Vector_36" d="M105.307 46.0062L110.547 42.9817V12.7334L105.307 15.7579V46.0062Z" fill="#455A64"/>
<path id="Vector_37" d="M100.068 12.7335L105.307 15.758L110.547 12.7335L105.307 9.70898L100.068 12.7335Z" fill="#455A64"/>
<path id="Vector_38" d="M93.5188 39.1996L88.2791 36.1751V25.5894L93.5188 28.6139V39.1996Z" fill="#37474F"/>
<path id="Vector_39" d="M93.5188 39.1996L98.7585 36.1751V25.5894L93.5188 28.6139V39.1996Z" fill="#455A64"/>
<path id="Vector_40" d="M88.2791 25.5892L93.5188 28.6137L98.7585 25.5892L93.5188 22.5647L88.2791 25.5892Z" fill="#455A64"/>
<path id="Vector_41" d="M128.884 59.62L123.645 56.5922V27.8594L128.881 30.8839L128.884 59.62Z" fill="#37474F"/>
<path id="Vector_42" d="M128.881 59.62L134.121 56.5922V27.8594L128.881 30.8839V59.62Z" fill="#455A64"/>
<path id="Vector_43" d="M123.645 27.8593L128.881 30.8838L134.121 27.8593L128.884 24.8315L123.645 27.8593Z" fill="#455A64"/>
</g>
<g id="main-charts">
<g id="Group" opacity="0.3">
<path id="Vector_44" d="M92.2515 57.4241L92.1967 23.9288C92.1854 23.7349 92.1287 23.5463 92.0313 23.3783C91.9339 23.2103 91.7984 23.0675 91.6357 22.9614L52.1172 0.245367C51.7947 0.0680234 51.5593 0.213122 51.5593 0.567809L51.6238 34.0502C51.6344 34.2443 51.6907 34.4331 51.7882 34.6012C51.8857 34.7693 52.0217 34.912 52.1849 35.0175L91.7066 57.7497C92.0065 57.9271 92.2515 57.782 92.2515 57.4241Z" fill="white"/>
</g>
<path id="Vector_45" d="M91.9484 57.9851C91.8345 57.9807 91.7236 57.9474 91.626 57.8884L52.1042 35.1562C51.9156 35.0374 51.7584 34.8749 51.6462 34.6823C51.5339 34.4897 51.4698 34.2729 51.4594 34.0502L51.3981 0.567805C51.3846 0.469611 51.4006 0.369623 51.4441 0.280551C51.4876 0.19148 51.5566 0.117348 51.6423 0.067578C51.728 0.0178081 51.8266 -0.00535302 51.9255 0.00104133C52.0244 0.00743568 52.1192 0.043095 52.1978 0.103487L91.7195 22.8163C91.9078 22.9355 92.0647 23.0982 92.1769 23.2906C92.2891 23.4831 92.3534 23.6998 92.3644 23.9223L92.4192 57.4176C92.427 57.5154 92.4087 57.6134 92.3662 57.7018C92.3237 57.7901 92.2586 57.8656 92.1774 57.9206C92.1082 57.9622 92.0292 57.9845 91.9484 57.9851ZM51.8689 0.3163C51.8477 0.310695 51.8255 0.310695 51.8044 0.3163C51.7729 0.343412 51.7487 0.377985 51.7341 0.416855C51.7194 0.455724 51.7148 0.497649 51.7205 0.538786L51.7754 34.0341C51.7845 34.2035 51.8341 34.3684 51.9199 34.5148C52.0057 34.6612 52.1253 34.7849 52.2687 34.8757L91.7905 57.6079C91.8872 57.6627 91.971 57.6788 92.0226 57.6465C92.0742 57.6143 92.1064 57.5369 92.1064 57.4241L92.0516 23.9288C92.0413 23.7636 91.9928 23.6032 91.91 23.46C91.8272 23.3167 91.7123 23.1947 91.5744 23.1033L52.0365 0.371115C51.9862 0.338886 51.9285 0.320021 51.8689 0.3163Z" fill="#7E57C2"/>
<path id="Vector_46" d="M88.4983 50.0336C87.4504 49.2887 86.8377 48.6148 86.4218 43.4364L86.3863 42.9946C85.9962 38.129 85.7414 34.9175 83.523 33.5922C82.459 32.9473 81.6077 33.5922 80.7081 34.2919C79.8923 34.9142 79.054 35.5527 78.1092 35.0142C76.4487 34.0469 76.1746 32.1316 75.6587 28.6363C75.5942 28.2042 75.5297 27.7496 75.4555 27.2724C75.3427 26.5275 75.2459 25.8343 75.1557 25.1829C74.6462 21.5135 74.3367 19.2951 72.46 18.1634C72.2752 18.0324 72.0624 17.9464 71.8384 17.9123C71.6145 17.8781 71.3857 17.8967 71.1703 17.9667C69.7483 18.4632 68.6359 21.4716 67.459 24.6606C67.3687 24.896 67.2816 25.1442 67.1881 25.3925C66.3336 27.7431 65.3663 30.4097 64.0282 30.9031C63.839 30.9723 63.6365 30.9979 63.4361 30.9778C63.2356 30.9577 63.0423 30.8924 62.8706 30.787C61.5389 30.0325 61.3003 27.9688 61.0714 25.9697C60.8424 23.9705 60.62 21.9617 59.3624 21.204C59.2558 21.135 59.1339 21.0934 59.0073 21.0827C58.8808 21.072 58.7536 21.0926 58.6369 21.1427C57.0763 21.7489 55.693 26.3663 55.6801 26.4114L55.3577 26.3212C55.4157 26.1245 56.799 21.5071 58.5047 20.8396C58.6676 20.7722 58.8443 20.7449 59.02 20.76C59.1956 20.7752 59.3651 20.8323 59.514 20.9267C60.9037 21.7586 61.1455 23.877 61.3809 25.9245C61.6163 27.9721 61.8291 29.8261 63.0222 30.5C63.1522 30.5826 63.2997 30.6341 63.4529 30.6503C63.6062 30.6665 63.7611 30.6471 63.9056 30.5935C65.1019 30.1518 66.0854 27.4497 66.8753 25.2764C66.9688 25.0249 67.0559 24.7799 67.1462 24.5413C68.4037 21.1395 69.4903 18.2021 71.0542 17.6539C71.3134 17.5699 71.5885 17.5468 71.8581 17.5865C72.1276 17.6262 72.3844 17.7276 72.6084 17.8828C74.614 19.0952 74.9332 21.3684 75.4555 25.1346C75.5458 25.7795 75.6425 26.4759 75.7554 27.2175C75.8296 27.698 75.8941 28.1526 75.9585 28.5815C76.4519 31.98 76.7259 33.8502 78.2511 34.7272C79.0088 35.1625 79.6956 34.6369 80.4921 34.0308C81.3949 33.3407 82.4267 32.5636 83.6681 33.3085C86.0252 34.7208 86.2896 38 86.6862 42.9624L86.7217 43.4042C87.1473 48.6858 87.7857 49.1372 88.6563 49.7659L88.4983 50.0336Z" fill="#7E57C2"/>
<g id="Group_2" opacity="0.4">
<path id="Vector_47" d="M88.4983 50.0336C87.4504 49.2887 86.8377 48.6148 86.4218 43.4364L86.3863 42.9946C85.9962 38.129 85.7414 34.9175 83.523 33.5922C82.459 32.9473 81.6077 33.5922 80.7081 34.2919C79.8923 34.9142 79.054 35.5527 78.1092 35.0142C76.4487 34.0469 76.1746 32.1316 75.6587 28.6363C75.5942 28.2042 75.5297 27.7496 75.4555 27.2724C75.3427 26.5275 75.2459 25.8343 75.1557 25.1829C74.6462 21.5135 74.3367 19.2951 72.46 18.1634C72.2752 18.0324 72.0624 17.9464 71.8384 17.9123C71.6145 17.8781 71.3857 17.8967 71.1703 17.9667C69.7483 18.4632 68.6359 21.4716 67.459 24.6606C67.3687 24.896 67.2816 25.1442 67.1881 25.3925C66.3336 27.7431 65.3663 30.4097 64.0282 30.9031C63.839 30.9723 63.6365 30.9979 63.4361 30.9778C63.2356 30.9577 63.0423 30.8924 62.8706 30.787C61.5389 30.0325 61.3003 27.9688 61.0714 25.9697C60.8424 23.9705 60.62 21.9617 59.3624 21.204C59.2558 21.135 59.1339 21.0934 59.0073 21.0827C58.8808 21.072 58.7536 21.0926 58.6369 21.1427C57.0763 21.7489 55.693 26.3663 55.6801 26.4114L55.3577 26.3212C55.4157 26.1245 56.799 21.5071 58.5047 20.8396C58.6676 20.7722 58.8443 20.7449 59.02 20.76C59.1956 20.7752 59.3651 20.8323 59.514 20.9267C60.9037 21.7586 61.1455 23.877 61.3809 25.9245C61.6163 27.9721 61.8291 29.8261 63.0222 30.5C63.1522 30.5826 63.2997 30.6341 63.4529 30.6503C63.6062 30.6665 63.7611 30.6471 63.9056 30.5935C65.1019 30.1518 66.0854 27.4497 66.8753 25.2764C66.9688 25.0249 67.0559 24.7799 67.1462 24.5413C68.4037 21.1395 69.4903 18.2021 71.0542 17.6539C71.3134 17.5699 71.5885 17.5468 71.8581 17.5865C72.1276 17.6262 72.3844 17.7276 72.6084 17.8828C74.614 19.0952 74.9332 21.3684 75.4555 25.1346C75.5458 25.7795 75.6425 26.4759 75.7554 27.2175C75.8296 27.698 75.8941 28.1526 75.9585 28.5815C76.4519 31.98 76.7259 33.8502 78.2511 34.7272C79.0088 35.1625 79.6956 34.6369 80.4921 34.0308C81.3949 33.3407 82.4267 32.5636 83.6681 33.3085C86.0252 34.7208 86.2896 38 86.6862 42.9624L86.7217 43.4042C87.1473 48.6858 87.7857 49.1372 88.6563 49.7659L88.4983 50.0336Z" fill="black"/>
</g>
<path id="Vector_48" d="M83.0458 32.1671C83.2856 32.3243 83.4854 32.5352 83.6293 32.7832C83.7732 33.0312 83.8571 33.3094 83.8745 33.5956C83.8745 34.1211 83.5037 34.3339 83.0491 34.0728C82.8082 33.9168 82.6076 33.7061 82.4636 33.4578C82.3196 33.2096 82.2362 32.9309 82.2204 32.6443C82.2204 32.1317 82.5783 31.9189 83.0458 32.1671Z" fill="#7E57C2"/>
<g id="Group_3" opacity="0.2">
<path id="Vector_49" d="M83.0458 32.1671C83.2856 32.3243 83.4854 32.5352 83.6293 32.7832C83.7732 33.0312 83.8571 33.3094 83.8745 33.5956C83.8745 34.1211 83.5037 34.3339 83.0491 34.0728C82.8082 33.9168 82.6076 33.7061 82.4636 33.4578C82.3196 33.2096 82.2362 32.9309 82.2204 32.6443C82.2204 32.1317 82.5783 31.9189 83.0458 32.1671Z" fill="black"/>
</g>
<path id="Vector_50" d="M72.5439 17.0736C72.784 17.2302 72.9838 17.4411 73.1272 17.6892C73.2706 17.9374 73.3536 18.2159 73.3693 18.502C73.3693 19.0276 73.0017 19.2404 72.5471 18.9793C72.306 18.8235 72.1053 18.6128 71.9613 18.3645C71.8172 18.1163 71.734 17.8374 71.7184 17.5508C71.7184 17.0124 72.086 16.8124 72.5439 17.0736Z" fill="#7E57C2"/>
<g id="Group_4" opacity="0.5">
<path id="Vector_51" d="M72.5439 17.0736C72.784 17.2302 72.9838 17.4411 73.1272 17.6892C73.2706 17.9374 73.3536 18.2159 73.3693 18.502C73.3693 19.0276 73.0017 19.2404 72.5471 18.9793C72.306 18.8235 72.1053 18.6128 71.9613 18.3645C71.8172 18.1163 71.734 17.8374 71.7184 17.5508C71.7184 17.0124 72.086 16.8124 72.5439 17.0736Z" fill="white"/>
</g>
<path id="Vector_52" d="M59.4495 20.1208C59.6904 20.2759 59.8912 20.486 60.0353 20.7337C60.1793 20.9814 60.2625 21.2598 60.2781 21.546C60.2781 22.0748 59.9106 22.2876 59.4527 22.0264C59.2128 21.8697 59.0131 21.6587 58.8697 21.4106C58.7263 21.1625 58.6432 20.8841 58.6272 20.598C58.624 20.0724 58.9948 19.8564 59.4495 20.1208Z" fill="#7E57C2"/>
<path id="Vector_53" opacity="0.65" d="M71.2509 55.9472V22.4519C71.2402 22.2582 71.1841 22.0698 71.0872 21.9018C70.9903 21.7338 70.8553 21.5908 70.6931 21.4846L36.4464 1.71241C36.124 1.53506 35.8886 1.68016 35.8886 2.03485V35.5302C35.8991 35.7239 35.955 35.9124 36.052 36.0805C36.1489 36.2485 36.284 36.3914 36.4464 36.4975L70.6931 56.2697C71.0026 56.4502 71.2509 56.3051 71.2509 55.9472Z" fill="white"/>
<path id="Vector_54" d="M70.9446 56.5083C70.8306 56.5039 70.7197 56.4706 70.6221 56.4116L36.3659 36.6394C36.1777 36.5194 36.021 36.356 35.9088 36.1631C35.7966 35.9701 35.7322 35.7531 35.721 35.5302V2.03492C35.7082 1.93698 35.7248 1.83747 35.7686 1.74895C35.8124 1.66042 35.8814 1.58685 35.9669 1.53752C36.0525 1.48819 36.1507 1.46531 36.2493 1.47177C36.3478 1.47823 36.4422 1.51375 36.5206 1.57382L70.7672 21.346C70.9553 21.4653 71.112 21.6281 71.2243 21.8205C71.3365 22.0129 71.4009 22.2295 71.4121 22.452V55.9473C71.4199 56.045 71.4016 56.1431 71.3591 56.2314C71.3166 56.3198 71.2515 56.3953 71.1703 56.4503C71.1014 56.4891 71.0236 56.5091 70.9446 56.5083ZM36.1982 1.79953C36.177 1.79407 36.1548 1.79407 36.1337 1.79953C36.1022 1.82664 36.0781 1.86122 36.0634 1.90009C36.0488 1.93896 36.0441 1.98088 36.0499 2.02202V35.5302C36.06 35.6958 36.1083 35.8568 36.1911 36.0006C36.2739 36.1444 36.3889 36.267 36.5271 36.3589L70.7737 56.1311C70.8065 56.1568 70.8453 56.1738 70.8864 56.1805C70.9276 56.1873 70.9697 56.1836 71.0091 56.1698C71.0606 56.1407 71.0897 56.0601 71.0897 55.9473V22.452C71.0798 22.2867 71.0315 22.1261 70.9487 21.9828C70.8659 21.8395 70.7507 21.7175 70.6125 21.6265L36.3659 1.85757C36.3165 1.82293 36.2584 1.80282 36.1982 1.79953Z" fill="#7E57C2"/>
<path id="Vector_55" d="M65.3598 48.3343V26.2922C65.3543 26.1952 65.326 26.1009 65.2773 26.0169C65.2286 25.9328 65.1607 25.8615 65.0793 25.8085L61.7098 23.8739C61.555 23.7836 61.4293 23.8545 61.4293 24.0351V46.0643C61.434 46.1615 61.462 46.2561 61.5108 46.3402C61.5596 46.4244 61.6278 46.4956 61.7098 46.548L65.0793 48.4827C65.2341 48.5858 65.3598 48.5117 65.3598 48.3343Z" fill="#7E57C2"/>
<g id="Group_5" opacity="0.3">
<path id="Vector_56" d="M65.3598 48.3343V26.2922C65.3543 26.1952 65.326 26.1009 65.2773 26.0169C65.2286 25.9328 65.1607 25.8615 65.0793 25.8085L61.7098 23.8739C61.555 23.7836 61.4293 23.8545 61.4293 24.0351V46.0643C61.434 46.1615 61.462 46.2561 61.5108 46.3402C61.5596 46.4244 61.6278 46.4956 61.7098 46.548L65.0793 48.4827C65.2341 48.5858 65.3598 48.5117 65.3598 48.3343Z" fill="black"/>
</g>
<path id="Vector_57" d="M58.811 44.5521V33.099C58.8055 33.002 58.7772 32.9077 58.7285 32.8237C58.6798 32.7396 58.6119 32.6683 58.5305 32.6153L55.1578 30.6806C55.0062 30.5936 54.8805 30.6806 54.8805 30.8419V42.2982C54.8862 42.3948 54.9141 42.4888 54.9623 42.5727C55.0104 42.6566 55.0773 42.7282 55.1578 42.7819L58.5305 44.7166C58.6853 44.8036 58.811 44.7424 58.811 44.5521Z" fill="#7E57C2"/>
<g id="Group_6" opacity="0.2">
<path id="Vector_58" d="M58.811 44.5521V33.099C58.8055 33.002 58.7772 32.9077 58.7285 32.8237C58.6798 32.7396 58.6119 32.6683 58.5305 32.6153L55.1578 30.6806C55.0062 30.5936 54.8805 30.6806 54.8805 30.8419V42.2982C54.8862 42.3948 54.9141 42.4888 54.9623 42.5727C55.0104 42.6566 55.0773 42.7282 55.1578 42.7819L58.5305 44.7166C58.6853 44.8036 58.811 44.7424 58.811 44.5521Z" fill="white"/>
</g>
<path id="Vector_59" d="M52.2687 40.7732V23.2678C52.2632 23.1708 52.2349 23.0765 52.1861 22.9925C52.1374 22.9084 52.0696 22.8371 51.9882 22.7841L48.6154 20.8494C48.4639 20.7592 48.3381 20.8301 48.3381 21.0107V38.5128C48.3433 38.6095 48.3711 38.7036 48.4192 38.7876C48.4674 38.8716 48.5346 38.9432 48.6154 38.9965L51.9882 40.9311C52.1365 41.0214 52.2687 40.9505 52.2687 40.7732Z" fill="#7E57C2"/>
<g id="Group_7" opacity="0.2">
<path id="Vector_60" d="M52.2687 40.7732V23.2678C52.2632 23.1708 52.2349 23.0765 52.1861 22.9925C52.1374 22.9084 52.0696 22.8371 51.9882 22.7841L48.6154 20.8494C48.4639 20.7592 48.3381 20.8301 48.3381 21.0107V38.5128C48.3433 38.6095 48.3711 38.7036 48.4192 38.7876C48.4674 38.8716 48.5346 38.9432 48.6154 38.9965L51.9882 40.9311C52.1365 41.0214 52.2687 40.9505 52.2687 40.7732Z" fill="black"/>
</g>
<path id="Vector_61" d="M45.7103 37.0039V11.9243C45.7053 11.8276 45.6777 11.7334 45.6295 11.6493C45.5813 11.5653 45.514 11.4938 45.433 11.4407L42.0602 9.50602C41.9087 9.41573 41.7829 9.50602 41.7829 9.66724V34.7339C41.7886 34.8305 41.8166 34.9244 41.8647 35.0083C41.9128 35.0923 41.9797 35.1639 42.0602 35.2176L45.433 37.1522C45.5877 37.2425 45.7103 37.1683 45.7103 37.0039Z" fill="#7E57C2"/>
</g>
<g id="character-2">
<path id="Vector_62" d="M115.348 41.0118C115.303 40.7699 114.12 38.0163 113.633 36.9329L111.166 38.0872L112.111 40.2508L114.665 42.2274C114.913 42.1517 115.123 41.983 115.25 41.7566C115.377 41.5302 115.413 41.2634 115.348 41.0118Z" fill="#FFA8A7"/>
<path id="Vector_63" d="M110.434 69.8542H108.532V72.6273H110.434V69.8542Z" fill="#FFA8A7"/>
<path id="Vector_64" d="M103.733 66.4292L101.831 66.4946L101.927 69.266L103.828 69.2006L103.733 66.4292Z" fill="#FFA8A7"/>
<path id="Vector_65" d="M104.208 30.1423C103.519 30.1583 102.846 30.3482 102.251 30.6944C101.655 31.0406 101.157 31.5317 100.803 32.1221C99.7516 33.686 97.9008 36.359 97.9008 36.359L101.367 37.4586L104.208 30.1423Z" fill="#7E57C2"/>
<g id="Group_8" opacity="0.7">
<path id="Vector_66" d="M104.208 30.1423C103.519 30.1583 102.846 30.3482 102.251 30.6944C101.655 31.0406 101.157 31.5317 100.803 32.1221C99.7516 33.686 97.9008 36.359 97.9008 36.359L101.367 37.4586L104.208 30.1423Z" fill="white"/>
</g>
<path id="Vector_67" d="M110.308 42.8079C110.308 44.6264 110.544 56.3859 110.544 56.3859C110.589 56.9083 111.079 57.8724 110.973 59.8812C110.827 62.6123 110.592 70.1993 110.592 70.1993C110.592 70.1993 109.699 71.0861 108.438 70.1993C108.438 70.1993 106.713 59.8973 106.375 57.192C106.075 54.8317 105.572 48.4216 105.572 48.4216L103.808 55.97C103.808 55.97 104.13 57.7434 104.185 58.9945C104.24 60.2455 103.863 67.4811 103.863 67.4811C103.554 67.674 103.2 67.7829 102.837 67.797C102.473 67.8111 102.112 67.73 101.789 67.5618C101.789 67.5618 100.261 56.9921 100.064 55.8603C99.8676 54.7286 101.406 42.8079 101.406 42.8079H110.308Z" fill="#7E57C2"/>
<path id="Vector_68" opacity="0.2" d="M110.308 42.8079C110.308 44.6264 110.544 56.3859 110.544 56.3859C110.589 56.9083 111.079 57.8724 110.973 59.8812C110.827 62.6123 110.592 70.1993 110.592 70.1993C110.592 70.1993 109.699 71.0861 108.438 70.1993C108.438 70.1993 106.713 59.8973 106.375 57.192C106.075 54.8317 105.572 48.4216 105.572 48.4216L103.808 55.97C103.808 55.97 104.13 57.7434 104.185 58.9945C104.24 60.2455 103.863 67.4811 103.863 67.4811C103.554 67.674 103.2 67.7829 102.837 67.797C102.473 67.8111 102.112 67.73 101.789 67.5618C101.789 67.5618 100.261 56.9921 100.064 55.8603C99.8676 54.7286 101.406 42.8079 101.406 42.8079H110.308Z" fill="black"/>
<path id="Vector_69" d="M107.445 30.2001C109.151 30.6096 111.314 31.2996 112.075 32.8731C112.836 34.4467 114.01 36.9972 114.01 36.9972L111.185 38.6674L110.308 37.1584V42.8076C108.973 44.2586 104.317 44.9357 101.402 42.8076V33.5084C101.402 32.0283 102.228 30.2452 104.501 30.113L107.445 30.2001Z" fill="#7E57C2"/>
<path id="Vector_70" opacity="0.7" d="M107.445 30.2001C109.151 30.6096 111.314 31.2996 112.075 32.8731C112.836 34.4467 114.01 36.9972 114.01 36.9972L111.185 38.6674L110.308 37.1584V42.8076C108.973 44.2586 104.317 44.9357 101.402 42.8076V33.5084C101.402 32.0283 102.228 30.2452 104.501 30.113L107.445 30.2001Z" fill="white"/>
<path id="Vector_71" d="M108.087 22.6099C108.24 22.5923 108.395 22.6099 108.54 22.6613C108.685 22.7127 108.817 22.7966 108.925 22.9066C109.286 23.2741 109.212 23.9577 108.925 25.5248L107.809 25.6538L108.087 22.6099Z" fill="#263238"/>
<path id="Vector_72" d="M101.602 22.1714C101.363 22.1744 101.126 22.1271 100.906 22.0327C100.564 21.8361 100.474 22.223 100.661 22.5615C100.785 22.803 100.968 23.0089 101.194 23.1596C101.42 23.3102 101.68 23.4007 101.951 23.4225C101.951 23.3741 102.273 22.5519 102.273 22.5519L101.602 22.1714Z" fill="#263238"/>
<path id="Vector_73" d="M107.564 25.6538C107.729 25.7537 107.964 25.4345 108.167 25.2217C108.248 25.1302 108.35 25.0605 108.464 25.0192C108.579 24.978 108.702 24.9665 108.822 24.9858C108.942 25.0051 109.056 25.0547 109.152 25.1298C109.247 25.2049 109.323 25.3031 109.37 25.4152C109.709 26.1278 108.941 27.079 108.49 27.3917C108.364 27.5007 108.206 27.5672 108.04 27.5817C107.874 27.5961 107.707 27.5579 107.564 27.4723L107.445 30.2002C107.246 30.6373 106.941 31.0182 106.559 31.3086C106.176 31.599 105.727 31.7898 105.252 31.864C103.64 32.08 103.979 30.7613 104.504 30.1131V29.12C104.104 29.2067 103.693 29.2285 103.286 29.1845C103.076 29.1297 102.579 28.5396 102.257 27.8528C101.896 27.0951 101.29 25.7505 101.831 23.4773C102.405 21.0364 105.027 20.9622 106.594 21.9457C108.161 22.9291 107.564 25.6538 107.564 25.6538Z" fill="#FFA8A7"/>
<path id="Vector_74" d="M107.564 25.9311C107.645 25.9311 107.964 25.4087 108.167 25.2217C108.454 24.9605 108.087 22.6099 108.087 22.6099C108.087 22.6099 108.374 21.72 107.809 21.1267C107.245 20.5334 106.155 20.6366 105.356 20.6076C104.374 20.6125 103.402 20.4172 102.499 20.0336C101.364 19.5403 101.28 19.4823 101.138 19.982C100.996 20.4818 100.945 21.62 101.622 22.3842L102.186 22.5938C102.186 22.5938 102.489 22.8614 103.547 22.9904C104.524 23.0647 105.507 23.0463 106.481 22.9356C106.787 22.8937 106.852 23.1903 107.016 24.0029C107.164 24.7187 107.284 25.9279 107.564 25.9311Z" fill="#263238"/>
<path id="Vector_75" d="M108.083 22.7938L109.083 22.2553C109.051 22.1882 109.006 22.1282 108.95 22.0791C108.895 22.0299 108.83 21.9926 108.759 21.9694C108.688 21.9461 108.614 21.9375 108.54 21.944C108.466 21.9505 108.394 21.9719 108.329 22.007C108.194 22.0815 108.094 22.2048 108.048 22.3513C108.003 22.4978 108.015 22.6563 108.083 22.7938Z" fill="#263238"/>
<path id="Vector_76" d="M104.504 29.12C105.188 28.9911 105.858 28.799 106.507 28.546C106.812 28.3881 107.062 28.1406 107.223 27.8367C107.145 28.1405 107.007 28.4257 106.816 28.675C106.436 29.1587 104.504 29.5166 104.504 29.5166V29.12Z" fill="#F28F8F"/>
<path id="Vector_77" d="M104.866 25.2829C104.864 25.3226 104.871 25.3623 104.885 25.3994C104.9 25.4365 104.921 25.4703 104.949 25.4989C104.977 25.5275 105.01 25.5502 105.046 25.5657C105.083 25.5812 105.122 25.5892 105.162 25.5892C105.227 25.5944 105.293 25.5795 105.349 25.5466C105.406 25.5138 105.451 25.4644 105.479 25.4052C105.507 25.3459 105.516 25.2795 105.506 25.2149C105.495 25.1503 105.465 25.0905 105.419 25.0434C105.374 24.9964 105.315 24.9643 105.251 24.9515C105.186 24.9387 105.12 24.9458 105.06 24.9718C105 24.9978 104.949 25.0415 104.914 25.0971C104.879 25.1526 104.862 25.2174 104.866 25.2829Z" fill="#263238"/>
<path id="Vector_78" d="M105.178 24.1608L105.823 24.5123C105.868 24.4249 105.877 24.3238 105.85 24.2296C105.822 24.1355 105.76 24.0554 105.675 24.006C105.632 23.9817 105.586 23.9664 105.537 23.9611C105.488 23.9558 105.439 23.9605 105.393 23.9751C105.346 23.9896 105.303 24.0136 105.266 24.0455C105.229 24.0775 105.199 24.1167 105.178 24.1608Z" fill="#263238"/>
<path id="Vector_79" d="M104.888 27.2981L104.208 27.5528C104.223 27.5981 104.247 27.6398 104.279 27.6757C104.31 27.7116 104.348 27.7409 104.391 27.7619C104.434 27.7829 104.481 27.7952 104.528 27.798C104.576 27.8009 104.624 27.7942 104.669 27.7785C104.76 27.7418 104.833 27.6714 104.874 27.582C104.915 27.4927 104.92 27.391 104.888 27.2981Z" fill="#F28F8F"/>
<path id="Vector_80" d="M102.215 24.409L102.792 23.9608C102.765 23.9218 102.73 23.8887 102.69 23.8635C102.649 23.8383 102.604 23.8216 102.557 23.8144C102.51 23.8072 102.462 23.8095 102.416 23.8214C102.37 23.8333 102.327 23.8544 102.289 23.8835C102.211 23.9446 102.16 24.0334 102.147 24.1314C102.133 24.2293 102.157 24.3288 102.215 24.409Z" fill="#263238"/>
<path id="Vector_81" d="M102.392 25.1991C102.392 25.2381 102.4 25.2767 102.415 25.3127C102.43 25.3487 102.452 25.3814 102.479 25.4089C102.507 25.4365 102.539 25.4583 102.575 25.4732C102.611 25.4881 102.65 25.4958 102.689 25.4958C102.728 25.4958 102.767 25.4881 102.803 25.4732C102.839 25.4583 102.871 25.4365 102.899 25.4089C102.926 25.3814 102.948 25.3487 102.963 25.3127C102.978 25.2767 102.986 25.2381 102.986 25.1991C102.987 25.1594 102.98 25.1198 102.966 25.0826C102.952 25.0455 102.93 25.0117 102.902 24.9831C102.875 24.9545 102.841 24.9318 102.805 24.9163C102.768 24.9008 102.729 24.8928 102.689 24.8928C102.609 24.8945 102.533 24.9276 102.478 24.985C102.422 25.0424 102.391 25.1193 102.392 25.1991Z" fill="#263238"/>
<path id="Vector_82" d="M103.905 24.9153L103.808 26.7048L102.876 26.3856L103.905 24.9153Z" fill="#F28F8F"/>
<path id="Vector_83" d="M96.1402 35.6851L103.743 37.6874L105.988 47.1253L98.7584 45.0262L96.1402 35.6851Z" fill="#7E57C2"/>
<path id="Vector_84" d="M99.4549 41.9307C99.3211 42.1695 99.1186 42.3627 98.8737 42.4852C98.6288 42.6076 98.3527 42.6537 98.0813 42.6175L97.9717 42.2273L99.4549 41.9307Z" fill="#7E57C2"/>
<path id="Vector_85" d="M101.154 42.2273C101.186 42.4788 101.706 42.9431 102.579 43.2333C103.572 43.5558 105.098 43.3913 105.098 43.3913L104.962 42.9205L101.154 42.2273Z" fill="#7E57C2"/>
<path id="Vector_86" opacity="0.43" d="M98.378 37.0522L98.3135 36.762C98.2812 36.6008 98.7262 36.5943 99.313 36.7459L100.432 37.0361C101.019 37.1908 101.519 37.4423 101.554 37.6036L101.618 37.8937L98.378 37.0522Z" fill="#455A64"/>
<path id="Vector_87" d="M97.8362 35.959C97.8169 35.859 97.9975 35.8332 98.2425 35.901L98.7004 36.0364C98.7004 36.0364 98.5682 35.3915 99.5549 35.6269C99.8181 35.6657 100.067 35.7719 100.277 35.9352C100.487 36.0984 100.652 36.3132 100.754 36.5587L101.228 36.6942C101.49 36.7683 101.725 36.907 101.757 37.0166L101.812 37.1972L97.8943 36.1654L97.8362 35.959Z" fill="#37474F"/>
<path id="Vector_88" d="M98.378 36.2719C98.7359 36.3589 98.8842 36.4073 98.939 36.6524C98.9938 36.8974 99.0261 37.1425 99.0261 37.1425L100.758 37.6004C100.758 37.6004 100.674 37.2424 100.648 37.1038C100.622 36.9651 100.68 36.8813 100.97 36.9522L100.993 36.8426L98.2748 36.1526L98.378 36.2719Z" fill="#37474F"/>
<path id="Vector_89" d="M98.3167 37.0812L98.2554 36.791C98.22 36.6298 98.6649 36.6234 99.2518 36.7749L100.371 37.0651C100.958 37.2167 101.461 37.4682 101.496 37.6294L101.557 37.9196L98.3167 37.0812Z" fill="#37474F"/>
<path id="Vector_90" d="M114.665 42.2273L112.111 40.2508C112.111 40.2508 106.758 41.2568 106.155 41.3051C105.552 41.3535 105.075 40.757 104.846 40.1637C104.617 39.5704 104.153 39.6446 104.153 39.6446C104.153 39.6446 104.33 40.3991 104.388 40.6377C104.446 40.8763 103.05 41.073 102.247 40.8021C101.444 40.5313 100.28 40.9247 100.999 42.021C101.718 43.1173 103.124 43.2398 104.098 43.243C104.506 43.239 104.913 43.211 105.317 43.1592C105.639 43.1205 105.962 43.0883 106.262 43.0657C108.254 42.9238 113.758 42.5111 114.665 42.2273Z" fill="#FFA8A7"/>
<path id="Vector_91" d="M96.9108 38.4451L97.2494 39.6478C97.3139 39.88 98.1974 40.2927 98.7584 40.454C99.3195 40.6152 99.9289 40.7764 99.6645 41.5728C99.4194 42.2919 98.5005 42.4563 98.0329 42.437C97.7179 42.3838 97.4238 42.2445 97.1831 42.0345C96.9424 41.8245 96.7645 41.552 96.669 41.2472C96.3466 40.3282 96.5207 39.3447 96.3917 38.8063C96.2627 38.2678 96.6335 38.1259 96.9108 38.4451Z" fill="#F28F8F"/>
<path id="Vector_92" d="M108.532 71.6888V71.4147C108.351 71.4953 107.925 73.1107 107.171 73.7975C106.571 74.3457 105.752 74.9809 105.559 75.5903C105.365 76.1997 106.7 76.577 107.261 76.477C107.906 76.361 109.044 75.9031 109.328 75.4775C109.612 75.0519 109.744 74.4231 109.973 74.1103C110.202 73.7975 110.734 73.4654 110.86 73.0914C110.897 72.7542 110.86 72.4129 110.75 72.0918C110.663 71.7533 110.566 71.3857 110.453 71.4147C110.453 71.4566 110.453 71.6243 110.453 71.6243C110.177 71.8384 109.836 71.9521 109.486 71.9467C109.206 71.9564 108.528 71.9016 108.532 71.6888Z" fill="#37474F"/>
<path id="Vector_93" d="M101.925 68.6742C101.825 68.6742 101.744 68.816 101.528 69.0514C101.202 69.381 100.823 69.6535 100.406 69.8575C99.6936 70.2154 98.3103 70.7636 97.6815 71.0473C97.2881 71.2247 97.3075 71.6922 97.7138 71.9663C98.12 72.2404 99.097 72.4306 100.271 72.1662C100.916 72.0243 101.744 71.4343 102.27 71.4633C102.795 71.4923 103.782 71.4891 104.172 71.2215C104.562 70.9538 104.404 70.3799 104.295 69.8866C104.185 69.3932 104.005 68.5291 103.827 68.5645V68.7354C103.598 69.0804 102.431 69.2223 101.928 68.9676L101.925 68.6742Z" fill="#37474F"/>
</g>
<g id="character-1">
<path id="Vector_94" d="M19.4796 67.5167L20.6694 69.1708C20.1269 69.4213 19.5352 69.5469 18.9379 69.5384C17.8738 69.5803 17.5804 69.2159 17.5417 69.145C17.3611 68.7613 17.6416 68.0648 17.719 67.4651L19.4796 67.5167Z" fill="#37474F"/>
<path id="Vector_95" d="M17.5417 65.8528C17.5417 65.8528 17.7222 67.3554 17.7351 67.6779C17.748 68.0003 19.2022 68.1067 19.4795 67.5166L19.5215 65.6787L17.5417 65.8528Z" fill="#F28F8F"/>
<path id="Vector_96" d="M17.5417 36.2493C16.5486 37.797 15.607 39.1512 15.4007 40.8989C14.975 44.5715 16.368 48.7697 16.6679 51.4847C16.104 52.2593 15.778 53.1815 15.7295 54.1384C15.7295 55.2605 17.5417 65.8527 17.5417 65.8527C17.5417 65.8527 18.8572 66.2557 19.5215 65.6786L20.7661 46.1934L20.1212 43.8202L17.5417 36.2493Z" fill="#7E57C2"/>
<path id="Vector_97" opacity="0.5" d="M17.5417 36.2493C16.5486 37.797 15.607 39.1512 15.4007 40.8989C14.975 44.5715 16.368 48.7697 16.6679 51.4847C16.104 52.2593 15.778 53.1815 15.7295 54.1384C15.7295 55.2605 17.5417 65.8527 17.5417 65.8527C17.5417 65.8527 18.8572 66.2557 19.5215 65.6786L20.7661 46.1934L20.1212 43.8202L17.5417 36.2493Z" fill="white"/>
<path id="Vector_98" d="M26.7216 28.9912L33.2704 32.135L29.3398 40.9732L23.2328 37.4489L26.7216 28.9912Z" fill="#7E57C2"/>
<path id="Vector_99" d="M32.4998 32.2962L29.1077 39.8285L24.4064 37.12L27.073 29.707L32.4998 32.2962Z" fill="#7E57C2"/>
<path id="Vector_100" d="M27.073 29.707L32.4997 32.2962L28.8368 39.9091L23.7035 36.9781L27.073 29.707Z" fill="white"/>
<path id="Vector_101" d="M28.2532 30.7969L28.3789 30.526C28.4499 30.3777 28.8981 30.4389 29.3817 30.6679L30.3071 31.1064C30.7908 31.3321 31.1229 31.6417 31.0552 31.79L30.9262 32.0608L28.2532 30.7969Z" fill="#E0E0E0"/>
<path id="Vector_102" d="M15.3201 32.1671C14.8428 33.5278 13.8981 35.6882 14.2012 36.1235C14.5043 36.5588 16.3228 36.4653 17.3353 36.4266C18.6251 36.3782 19.6956 36.3266 19.6956 36.3266L19.4796 34.0695H17.6481L18.4542 31.7866L15.3201 32.1671Z" fill="#F28F8F"/>
<path id="Vector_103" d="M17.1548 27.3306C16.4873 28.4269 15.1395 32.2962 15.1395 32.2962C15.514 32.7209 16.0107 33.0194 16.5615 33.1507C17.0425 33.2983 17.5536 33.3183 18.0447 33.2087L19.5344 29.5006L17.1548 27.3306Z" fill="#7E57C2"/>
<path id="Vector_104" opacity="0.4" d="M17.1548 27.3306C16.4873 28.4269 15.1395 32.2962 15.1395 32.2962C15.514 32.7209 16.0107 33.0194 16.5615 33.1507C17.0425 33.2983 17.5536 33.3183 18.0447 33.2087L19.5344 29.5006L17.1548 27.3306Z" fill="black"/>
<path id="Vector_105" d="M23.8196 28.0208C24.9901 28.3722 25.7027 28.4335 26.9957 30.4229C28.2887 32.4124 31.1197 36.3591 31.4003 36.8331C31.7904 37.478 31.9581 38.2776 31.6227 38.8838C31.2874 39.49 30.3942 39.2063 29.1109 38.0745C27.8276 36.9427 25.4093 33.9085 25.4093 33.9085C25.4093 33.9085 22.8878 31.0678 23.8196 28.0208Z" fill="#FFA8A7"/>
<path id="Vector_106" d="M22.8845 25.441L22.5685 28.2366L19.8084 28.5558L20.2083 24.8445L22.8845 25.441Z" fill="#FFA8A7"/>
<path id="Vector_107" d="M16.9806 21.3556C17.2095 18.7761 18.5928 17.7088 19.6923 17.454C21.8753 16.9381 23.8228 17.7313 24.7063 19.2629C24.9385 19.666 25.3286 21.175 24.5516 22.065C23.7745 22.9549 16.9806 21.3556 16.9806 21.3556Z" fill="#263238"/>
<path id="Vector_108" d="M24.9224 22.2649C24.9224 22.2649 25.4963 23.2322 25.4092 23.3419C25.2567 23.4305 25.0897 23.4916 24.9159 23.5224L24.9224 22.2649Z" fill="#F28F8F"/>
<path id="Vector_109" d="M23.1812 19.1535C23.7745 19.505 24.7934 20.1466 24.932 22.4037C25.0771 24.7221 24.6354 25.4347 24.2872 25.7184C24.0647 25.9119 22.9232 25.8474 22.3525 25.6378C21.6528 25.3734 20.0954 24.6544 19.4247 23.4226C18.6509 21.9749 18.5831 20.1015 19.6085 19.4276C20.1313 19.0812 20.7339 18.8742 21.3592 18.8262C21.9845 18.7782 22.6117 18.8909 23.1812 19.1535Z" fill="#FFA8A7"/>
<path id="Vector_110" d="M23.3553 19.2694C23.3553 19.2694 23.7648 21.4008 23.0555 22.6905C23.0555 22.6905 22.733 21.8489 22.0107 22.0456C21.2885 22.2423 21.2981 23.1903 21.8302 23.7062C21.9649 23.853 22.1385 23.9587 22.3307 24.0112C22.523 24.0637 22.7261 24.0608 22.9168 24.0029C22.8165 24.6667 22.507 25.2812 22.0333 25.7569C21.2813 25.9309 20.4955 25.8888 19.7664 25.6355C19.0373 25.3822 18.3946 24.928 17.9125 24.3253C16.3003 22.41 16.7227 19.1662 19.2797 18.4698C21.8366 17.7733 23.3553 19.2694 23.3553 19.2694Z" fill="#263238"/>
<path id="Vector_111" d="M20.6016 68.3776C20.6016 68.3776 22.0462 68.2841 23.0425 68.1584C24.0389 68.0326 24.8289 68.5195 24.5935 68.9322C24.3581 69.3449 23.8099 69.6835 22.9555 69.9705C22.2235 70.2188 21.3433 70.3961 20.5823 70.6154C19.8213 70.8346 19.2925 71.1184 18.8508 70.9668C18.3574 70.7959 18.1446 70.5993 18.1866 70.2381C18.2942 69.7244 18.4277 69.2165 18.5864 68.7162L20.6016 68.3776Z" fill="#37474F"/>
<path id="Vector_112" d="M19.0056 66.7781L18.4864 69.0577C18.4864 69.0577 18.4381 69.335 19.6247 69.5124C20.8112 69.6897 22.675 68.8933 22.9942 68.7289C23.3134 68.5644 23.3489 68.2452 22.1816 68.3097C21.0144 68.3742 20.6017 68.3774 20.6017 68.3774L20.9918 67.3649L19.0056 66.7781Z" fill="#FFA8A7"/>
<path id="Vector_113" d="M20.7661 46.1934L20.1212 43.8202C18.8865 43.4952 17.6955 43.022 16.5744 42.4111C16.5744 42.4111 17.245 43.6332 19.1539 44.3006L20.1567 47.3509L20.2437 54.3286L20.7661 46.1934Z" fill="#7E57C2"/>
<path id="Vector_114" d="M17.5417 36.2493C17.0097 37.1166 15.7392 38.6031 16.0069 40.0283C16.3293 41.7598 17.2676 42.9722 20.1116 43.8202L22.7814 53.4935C22.7814 53.4935 21.3917 54.7832 20.966 56.0311C20.5404 57.279 19.0056 66.7878 19.0056 66.7878C19.0056 66.7878 19.4796 67.5616 20.9789 67.3746C20.9789 67.3746 26.2057 55.4443 26.5765 54.6672C27.0189 53.8847 27.1751 52.9727 27.0183 52.0876C26.8538 50.8333 25.0836 37.1392 25.0836 37.1392L17.5417 36.2493Z" fill="#7E57C2"/>
<path id="Vector_115" opacity="0.5" d="M17.5417 36.2493C17.0097 37.1166 15.7392 38.6031 16.0069 40.0283C16.3293 41.7598 17.2676 42.9722 20.1116 43.8202L22.7814 53.4935C22.7814 53.4935 21.3917 54.7832 20.966 56.0311C20.5404 57.279 19.0056 66.7878 19.0056 66.7878C19.0056 66.7878 19.4796 67.5616 20.9789 67.3746C20.9789 67.3746 26.2057 55.4443 26.5765 54.6672C27.0189 53.8847 27.1751 52.9727 27.0183 52.0876C26.8538 50.8333 25.0836 37.1392 25.0836 37.1392L17.5417 36.2493Z" fill="white"/>
<path id="Vector_116" d="M17.058 27.5304C17.2644 26.9822 17.9222 26.5244 18.5155 26.6856C20.376 27.1918 23.2683 27.8593 23.8196 28.0205C23.8196 28.0205 23.5746 32.2123 25.7156 33.4633C25.6156 34.2598 25.0707 37.1166 25.0707 37.1166C25.0707 37.1166 22.4912 38.3677 20.376 37.7615C18.2607 37.1553 17.5417 36.2589 17.5417 36.2589L18.6025 34.5306C18.3768 33.9663 17.4998 32.0607 16.9355 30.2873C16.728 29.374 16.7703 28.4217 17.058 27.5304Z" fill="#7E57C2"/>
<path id="Vector_117" opacity="0.2" d="M17.058 27.5304C17.2644 26.9822 17.9222 26.5244 18.5155 26.6856C20.376 27.1918 23.2683 27.8593 23.8196 28.0205C23.8196 28.0205 23.5746 32.2123 25.7156 33.4633C25.6156 34.2598 25.0707 37.1166 25.0707 37.1166C25.0707 37.1166 22.4912 38.3677 20.376 37.7615C18.2607 37.1553 17.5417 36.2589 17.5417 36.2589L18.6025 34.5306C18.3768 33.9663 17.4998 32.0607 16.9355 30.2873C16.728 29.374 16.7703 28.4217 17.058 27.5304Z" fill="black"/>
<path id="Vector_118" opacity="0.25" d="M18.3123 33.8406C19.1941 34.3709 20.1183 34.8271 21.0756 35.2045C20.2069 35.1877 19.3565 34.9527 18.6025 34.5209L18.3123 33.8406Z" fill="#7E57C2"/>
<path id="Vector_119" d="M18.8604 18.0281C18.8604 18.0281 17.9769 16.5223 15.8134 16.9125C13.6498 17.3026 12.7727 19.5984 12.805 21.0526C12.8372 22.5068 13.3241 23.5225 12.0214 25.2444C11.7647 25.5839 11.5837 25.9746 11.4909 26.3901C11.398 26.8055 11.3953 27.236 11.483 27.6526C11.5708 28.0692 11.7468 28.4621 11.9993 28.8048C12.2519 29.1475 12.575 29.4321 12.9468 29.6393C14.6848 30.6066 15.1072 28.9234 14.7041 27.4853C14.2398 25.8377 15.9649 25.5507 16.426 24.3028C16.8871 23.055 15.981 20.4335 16.5614 19.5436C17.2063 18.5763 18.0769 18.7117 18.4961 19.0406L18.8604 18.0281Z" fill="#263238"/>
<path id="Vector_120" d="M23.8196 28.0208C24.3979 28.1436 24.9627 28.3229 25.506 28.556C26.2154 28.9042 28.9819 33.2475 28.9819 33.2475C28.9819 33.2475 28.7852 34.8823 26.5217 35.5304L25.1836 33.8408C25.1836 33.8408 23.2167 30.9034 23.8196 28.0208Z" fill="#7E57C2"/>
<path id="Vector_121" opacity="0.1" d="M23.8196 28.0208C24.3979 28.1436 24.9627 28.3229 25.506 28.556C26.2154 28.9042 28.9819 33.2475 28.9819 33.2475C28.9819 33.2475 28.7852 34.8823 26.5217 35.5304L25.1836 33.8408C25.1836 33.8408 23.2167 30.9034 23.8196 28.0208Z" fill="black"/>
<path id="Vector_122" d="M25.5769 34.3501C24.9824 33.6581 24.5338 32.8531 24.2581 31.9834C24.2581 31.9834 24.2581 33.86 25.4931 34.8306L25.5769 34.3501Z" fill="#7E57C2"/>
<path id="Vector_123" opacity="0.4" d="M25.5769 34.3501C24.9824 33.6581 24.5338 32.8531 24.2581 31.9834C24.2581 31.9834 24.2581 33.86 25.4931 34.8306L25.5769 34.3501Z" fill="black"/>
<path id="Vector_124" d="M28.4886 29.6296C28.5305 29.5361 28.7272 29.5425 28.9271 29.6296L29.2882 29.8069C29.2882 29.8069 29.5688 29.2233 30.4071 29.5748C31.2455 29.9262 30.9875 30.6001 30.9875 30.6001L31.3712 30.7968C31.584 30.9032 31.7259 31.0677 31.6937 31.1644L31.6292 31.3353L28.4048 29.7876L28.4886 29.6296Z" fill="#455A64"/>
<path id="Vector_125" d="M28.8175 29.9971C29.1206 30.1325 29.2367 30.197 29.1399 30.4292C29.0432 30.6613 28.9045 30.8838 28.9045 30.8838L30.3297 31.5674C30.3297 31.5674 30.4813 31.2449 30.5458 31.1031C30.6103 30.9612 30.7263 30.9064 30.952 31.016L31.0488 30.9193L28.7917 29.8713L28.8175 29.9971Z" fill="#455A64"/>
<path id="Vector_126" d="M28.2274 30.7162L28.3564 30.4454C28.4273 30.2938 28.8755 30.3583 29.3592 30.5873L30.2846 31.0258C30.765 31.2515 31.1003 31.5578 31.0294 31.7094L30.9004 31.9802L28.2274 30.7162Z" fill="#455A64"/>
</g>
</g>
</svg>
