<svg width="153" height="117" viewBox="0 0 153 117" fill="none" xmlns="http://www.w3.org/2000/svg">
<g id="charts/amico">
<g id="Floor">
<path id="Vector" d="M22.3449 105.317C52.1374 120.894 100.441 120.894 130.234 105.317C160.026 89.7398 160.026 64.5191 130.234 48.9563C100.441 33.3935 52.1374 33.3791 22.3449 48.9563C-7.4475 64.5336 -7.4475 89.7507 22.3449 105.317Z" fill="#F5F5F5"/>
</g>
<g id="grey-charts">
<path id="Vector_2" d="M38.8025 33.7231L45.9826 29.5789L38.8025 25.4346L31.5573 29.5789L38.8025 33.7231Z" stroke="#EBEBEB" stroke-width="1.08419" stroke-linecap="round" stroke-linejoin="round"/>
<path id="Vector_3" d="M33.2273 29.5825L38.8062 13.4583V32.8031L33.2273 29.5825Z" fill="#E0E0E0"/>
<path id="Vector_4" d="M38.8062 32.8031L44.3814 29.5825L38.8062 13.4583V32.8031Z" fill="#E6E6E6"/>
<path id="Vector_5" d="M30.0285 38.7803L37.2086 34.636L30.0285 30.4917L22.7833 34.636L30.0285 38.7803Z" stroke="#EBEBEB" stroke-width="1.08419" stroke-linecap="round" stroke-linejoin="round"/>
<path id="Vector_6" d="M24.4533 34.6396L30.0285 10.6941V37.8601L24.4533 34.6396Z" fill="#E0E0E0"/>
<path id="Vector_7" d="M30.0285 37.8601L35.6037 34.6396L30.0285 10.6941V37.8601Z" fill="#E6E6E6"/>
<path id="Vector_8" d="M21.2545 43.8374L28.4346 39.6931L21.2545 35.5488L14.0057 39.6931L21.2545 43.8374Z" stroke="#EBEBEB" stroke-width="1.08419" stroke-linecap="round" stroke-linejoin="round"/>
<path id="Vector_9" d="M15.6793 39.6968L21.2545 25.4346V42.9173L15.6793 39.6968Z" fill="#E0E0E0"/>
<path id="Vector_10" d="M21.2545 42.9173L26.8298 39.6968L21.2545 25.4346V42.9173Z" fill="#E6E6E6"/>
<path id="Vector_11" d="M12.4806 48.8948L19.6606 44.7505L12.4806 40.6062L5.23169 44.7505L12.4806 48.8948Z" stroke="#EBEBEB" stroke-width="1.08419" stroke-linecap="round" stroke-linejoin="round"/>
<path id="Vector_12" d="M6.9017 44.7541L12.4805 20.5405V47.9746L6.9017 44.7541Z" fill="#E0E0E0"/>
<path id="Vector_13" d="M12.4806 47.9746L18.0558 44.7541L12.4806 20.5405V47.9746Z" fill="#E6E6E6"/>
<path id="Vector_14" d="M108.172 28.2131L146.463 50.3184" stroke="#EBEBEB" stroke-width="1.08419" stroke-miterlimit="10" stroke-linecap="round"/>
<path id="Vector_15" d="M146.463 47.9746C146.417 45.1997 146.222 42.4292 145.88 39.6751C145.518 36.6828 144.793 31.6329 141.913 29.9665C139.033 28.3001 137.946 31.3141 137.53 32.7958C136.986 34.7194 134.164 33.5022 133.773 30.3324C133.382 27.1626 133.125 17.0627 129.741 15.1174C126.358 13.172 125.267 17.8633 124.883 19.1747C124.126 21.7504 121.905 21.0404 121.181 19.3341C120.456 17.6279 118.478 17.2113 117.732 19.613C116.986 22.0148 116.526 24.7717 114.11 23.3552C111.987 22.1127 112.961 19.8485 110.893 18.7726C109.255 17.9249 108.495 21.9678 108.495 26.0577L146.463 47.9746Z" fill="#E0E0E0"/>
<path id="Vector_16" d="M143.681 26.8946C143.681 27.3365 143.283 27.4633 142.797 27.1844L139.899 25.5035C139.661 25.3684 139.457 25.1801 139.304 24.9532C139.15 24.7264 139.052 24.4671 139.015 24.1957C139.015 23.7574 139.414 23.627 139.899 23.9095L142.797 25.5904C143.035 25.7247 143.239 25.9123 143.392 26.1386C143.546 26.3649 143.645 26.6236 143.681 26.8946Z" fill="#E6E6E6"/>
<path id="Vector_17" d="M131.784 12.6829C131.784 13.1249 131.39 13.2516 130.9 12.9727L128.002 11.2918C127.764 11.1574 127.559 10.9693 127.406 10.7423C127.253 10.5153 127.154 10.2557 127.118 9.98403C127.118 9.5457 127.513 9.41528 128.002 9.69785L130.9 11.3787C131.139 11.5125 131.343 11.7001 131.496 11.9264C131.65 12.1528 131.748 12.4118 131.784 12.6829Z" fill="#E6E6E6"/>
<path id="Vector_18" d="M122.362 15.2986C122.362 15.7406 121.967 15.8674 121.482 15.5884L118.584 13.9075C118.345 13.7731 118.141 13.585 117.987 13.358C117.834 13.131 117.735 12.8714 117.7 12.5998C117.7 12.1614 118.094 12.031 118.584 12.3136L121.482 13.9945C121.719 14.1289 121.922 14.3167 122.075 14.543C122.228 14.7693 122.326 15.0279 122.362 15.2986Z" fill="#E6E6E6"/>
<path id="Vector_19" d="M113.429 16.1643C113.429 16.6063 113.034 16.7331 112.545 16.4505L109.647 14.7732C109.409 14.638 109.206 14.4496 109.053 14.2227C108.9 13.9958 108.802 13.7366 108.766 13.4655C108.766 13.0271 109.161 12.8967 109.647 13.1793L112.545 14.8566C112.783 14.9914 112.987 15.1796 113.14 15.4066C113.294 15.6335 113.392 15.8929 113.429 16.1643Z" fill="#E6E6E6"/>
<path id="Vector_20" d="M106.578 24.9492V1" stroke="#EBEBEB" stroke-width="1.08419" stroke-miterlimit="10" stroke-linecap="round"/>
</g>
<g id="Plants">
<path id="Vector_21" d="M13.763 77.9228C13.763 77.9228 14.3571 72.6048 12.7088 67.5403C11.1583 62.7512 8.04284 60.2118 6.15545 59.451C2.58717 58.0273 2.26838 61.9579 4.94187 64.6785C6.90171 66.6782 11.6184 70.8007 12.4298 77.7924L13.763 77.9228Z" fill="#7E57C2"/>
<path id="Vector_22" opacity="0.7" d="M13.763 77.9228C13.763 77.9228 14.3571 72.6048 12.7088 67.5403C11.1583 62.7512 8.04284 60.2118 6.15545 59.451C2.58717 58.0273 2.26838 61.9579 4.94187 64.6785C6.90171 66.6782 11.6184 70.8007 12.4298 77.7924L13.763 77.9228Z" fill="white"/>
<path id="Vector_23" d="M5.19183 60.5486C7.34729 61.9976 13.1399 66.1818 13.35 77.8828" stroke="#FAFAFA" stroke-width="1.08419" stroke-miterlimit="10" stroke-linecap="round"/>
<path id="Vector_24" d="M12.2451 81.5562C11.1366 76.1947 8.87242 74.2494 4.82595 72.1772C3.09434 71.2933 1.06567 70.3079 0.333899 69.1813C-0.397871 68.0547 -0.0283627 66.5404 2.464 66.573C7.01764 66.6346 12.2052 72.1229 12.8972 78.1364L12.2451 81.5562Z" fill="#7E57C2"/>
<path id="Vector_25" opacity="0.8" d="M12.2451 81.5562C11.1366 76.1947 8.87242 74.2494 4.82595 72.1772C3.09434 71.2933 1.06567 70.3079 0.333899 69.1813C-0.397871 68.0547 -0.0283627 66.5404 2.464 66.573C7.01764 66.6346 12.2052 72.1229 12.8972 78.1364L12.2451 81.5562Z" fill="white"/>
<path id="Vector_26" d="M2.07999 67.7395C5.51785 68.2068 10.9482 72.2134 12.6725 79.3319" stroke="#FAFAFA" stroke-width="1.08419" stroke-miterlimit="10" stroke-linecap="round"/>
<path id="Vector_27" d="M139.251 75.4123C140.645 72.7315 141.728 65.211 139.935 61.7332C138.142 58.2555 135.476 58.5345 135.063 59.6611C134.701 60.7008 135.595 62.5592 136.755 64.7726C137.914 66.9861 138.892 71.7281 137.794 73.9379L139.251 75.4123Z" fill="#7E57C2"/>
<path id="Vector_28" opacity="0.7" d="M139.251 75.4123C140.645 72.7315 141.728 65.211 139.935 61.7332C138.142 58.2555 135.476 58.5345 135.063 59.6611C134.701 60.7008 135.595 62.5592 136.755 64.7726C137.914 66.9861 138.892 71.7281 137.794 73.9379L139.251 75.4123Z" fill="white"/>
<path id="Vector_29" d="M136.823 59.8423C137.965 60.7588 141.232 66.363 138.946 74.0538" stroke="#FAFAFA" stroke-width="1.08419" stroke-miterlimit="10" stroke-linecap="round"/>
<path id="Vector_30" d="M138.809 78.2525C137.968 76.5716 136.128 73.7894 137.381 71.8803C138.635 69.9712 139.946 71.6593 140.953 70.4131C141.96 69.1669 140.808 67.1528 141.678 66.066C143.359 63.9286 144.576 66.4101 145.894 66.0841C146.847 65.8486 147.909 63.7366 150.651 63.9938C153.393 64.2511 153.256 66.4246 152.035 67.4462C150.814 68.4678 149.365 69.4857 150.307 71.0181C151.14 72.3766 151.571 74.8871 148.72 75.8616C145.996 76.7926 147.344 77.9736 146.909 79.3067C146.474 80.6398 143.902 81.9041 141.167 80.8753L138.809 78.2525Z" fill="#7E57C2"/>
<path id="Vector_31" opacity="0.8" d="M138.809 78.2525C137.968 76.5716 136.128 73.7894 137.381 71.8803C138.635 69.9712 139.946 71.6593 140.953 70.4131C141.96 69.1669 140.808 67.1528 141.678 66.066C143.359 63.9286 144.576 66.4101 145.894 66.0841C146.847 65.8486 147.909 63.7366 150.651 63.9938C153.393 64.2511 153.256 66.4246 152.035 67.4462C150.814 68.4678 149.365 69.4857 150.307 71.0181C151.14 72.3766 151.571 74.8871 148.72 75.8616C145.996 76.7926 147.344 77.9736 146.909 79.3067C146.474 80.6398 143.902 81.9041 141.167 80.8753L138.809 78.2525Z" fill="white"/>
<path id="Vector_32" d="M151.028 65.2253C148.057 66.0223 140.942 71.804 140.341 79.0601" stroke="#FAFAFA" stroke-width="1.08419" stroke-miterlimit="10" stroke-linecap="round"/>
<path id="Vector_33" d="M148.887 72.8438C147.42 72.5105 143.692 72.4634 142.297 73.1409" stroke="#FAFAFA" stroke-width="1.08419" stroke-miterlimit="10" stroke-linecap="round"/>
<path id="Vector_34" d="M143.127 66.7036C143.127 66.7036 144.214 68.8084 144.058 70.5798" stroke="#FAFAFA" stroke-width="1.08419" stroke-miterlimit="10" stroke-linecap="round"/>
</g>
<g id="Charts">
<path id="Vector_35" d="M102.604 46.1449C102.119 44.4637 101.251 42.9176 100.068 41.6275C98.671 40.1037 97.0366 38.8155 95.2285 37.8129C93.129 36.6236 90.8965 35.6861 88.5774 35.0198C86.0227 34.2825 83.4019 33.7971 80.7525 33.5708C78.0159 33.3208 75.2622 33.3208 72.5255 33.5708C69.8774 33.7971 67.2578 34.2824 64.7043 35.0198C62.3837 35.6854 60.15 36.6229 58.0495 37.8129C56.2413 38.8243 54.6083 40.121 53.2133 41.6529C52.0321 42.9437 51.1643 44.4896 50.6775 46.1703C50.2447 47.725 50.2447 49.3684 50.6775 50.9231C51.1604 52.6044 52.0287 54.1499 53.2133 55.4369C54.6092 56.9702 56.2435 58.2681 58.0532 59.2805C60.1511 60.4695 62.3825 61.4058 64.7007 62.0699C67.2553 62.8106 69.8759 63.3007 72.5255 63.5335C75.2623 63.7798 78.0157 63.7798 80.7525 63.5335C83.4035 63.2998 86.0253 62.8084 88.581 62.0663C90.8992 61.4022 93.1306 60.4659 95.2285 59.2769C97.0388 58.2655 98.6732 56.9675 100.068 55.4333C101.251 54.1451 102.119 52.6 102.604 50.9195C103.038 49.3575 103.038 47.7069 102.604 46.1449Z" fill="#37474F"/>
<path id="Vector_36" d="M50.3514 46.1523H102.927V48.8331L50.3514 48.6846V46.1523Z" fill="#37474F"/>
<path id="Vector_37" d="M72.5255 31.1692L76.6336 46.1451L64.7043 32.6327C67.2573 31.8904 69.8769 31.4002 72.5255 31.1692Z" fill="#455A64"/>
<path id="Vector_38" d="M80.7525 31.1691L76.6444 46.1451L72.5364 31.1619C75.2696 30.915 78.0197 30.9174 80.7525 31.1691Z" fill="#455A64"/>
<path id="Vector_39" d="M88.5774 32.6326L76.6444 46.145L80.7525 31.1619C83.4026 31.3953 86.0234 31.8879 88.5774 32.6326Z" fill="#455A64"/>
<path id="Vector_40" d="M100.065 39.262C101.246 40.554 102.114 42.1011 102.601 43.783L76.648 46.1449L100.065 39.262Z" fill="#455A64"/>
<path id="Vector_41" d="M102.604 43.7866C103.033 45.3406 103.033 46.9819 102.604 48.5359L76.648 46.1449L102.604 43.7866Z" fill="#455A64"/>
<path id="Vector_42" d="M102.604 48.536C102.119 50.2172 101.251 51.7634 100.068 53.0534L76.648 46.1704L102.604 48.536Z" fill="#455A64"/>
<path id="Vector_43" d="M100.068 53.0534C98.6729 54.5862 97.0385 55.883 95.2285 56.8933L76.6408 46.145L100.068 53.0534Z" fill="#455A64"/>
<path id="Vector_44" d="M76.6444 46.1632L88.581 59.6865C86.0251 60.4242 83.4031 60.9095 80.7525 61.1355L76.6408 46.1523L76.6444 46.1632Z" fill="#455A64"/>
<path id="Vector_45" d="M76.6408 46.1667L80.7525 61.1499C78.0159 61.3999 75.2621 61.3999 72.5255 61.1499L76.6408 46.1667Z" fill="#455A64"/>
<path id="Vector_46" d="M76.6336 46.1631L72.5183 61.1463C69.8677 60.9202 67.2457 60.4349 64.6898 59.6972L76.6336 46.1631Z" fill="#455A64"/>
<path id="Vector_47" d="M76.6336 46.1631L64.6789 59.6863C62.3612 59.0194 60.13 58.0819 58.0314 56.8933L76.6336 46.1631Z" fill="#455A64"/>
<path id="Vector_48" d="M76.6299 46.145L53.2097 53.028C52.0256 51.7391 51.1575 50.1926 50.6739 48.5106L76.6299 46.145Z" fill="#455A64"/>
<path id="Vector_49" d="M76.6299 46.1449L50.6775 48.5359C50.2446 46.9824 50.2446 45.3401 50.6775 43.7866L76.6299 46.1449Z" fill="#455A64"/>
<path id="Vector_50" d="M76.6299 46.1451L50.6775 43.7723C51.165 42.0908 52.0326 40.5439 53.2133 39.2512L76.6299 46.1451Z" fill="#455A64"/>
<path id="Vector_51" d="M58.0495 35.4292L76.6299 46.1449L53.2133 39.2619C54.6087 37.7325 56.2418 36.4383 58.0495 35.4292Z" fill="#455A64"/>
<path id="Vector_52" d="M95.2285 35.4292L76.6444 46.1449L88.5774 32.6252C90.8975 33.2934 93.1302 34.2347 95.2285 35.4292Z" fill="#455A64"/>
<path id="Vector_53" d="M95.2285 35.4292C97.0369 36.4374 98.6701 37.7317 100.065 39.2619L76.648 46.1449L95.2285 35.4292Z" fill="#455A64"/>
<path id="Vector_54" d="M76.6336 46.145L58.0423 56.8789C56.2329 55.8677 54.5986 54.571 53.2025 53.0389L76.6227 46.1559L76.6336 46.145Z" fill="#455A64"/>
<path id="Vector_55" d="M64.7043 32.6326L76.6336 46.1449L58.0495 35.4147C60.1498 34.2271 62.3837 33.2932 64.7043 32.6326Z" fill="#455A64"/>
<path id="Vector_56" d="M76.6444 46.1631L95.2285 56.8933C93.1299 58.0819 90.8987 59.0194 88.581 59.6863L76.6444 46.1631Z" fill="#455A64"/>
<path id="Vector_57" d="M60.7411 31.0314L75.5033 39.5518L74.7788 27.5066C69.3485 27.7384 64.7369 28.8977 60.7411 31.0314Z" fill="#7E57C2"/>
<path id="Vector_58" opacity="0.2" d="M60.7411 31.0314L75.5033 39.5518L74.7788 27.5066C69.3485 27.7384 64.7369 28.8977 60.7411 31.0314Z" fill="white"/>
<path id="Vector_59" d="M75.5033 39.5519V44.2033L60.7411 35.6793V31.0315L75.5033 39.5519Z" fill="#7E57C2"/>
<path id="Vector_60" opacity="0.1" d="M75.5033 39.5519V44.2033L60.7411 35.6793V31.0315L75.5033 39.5519Z" fill="black"/>
<path id="Vector_61" d="M94.6416 32.2268L77.6986 39.8705V44.5184L94.6416 36.8746V32.2268Z" fill="#7E57C2"/>
<path id="Vector_62" opacity="0.3" d="M94.6416 32.2268L77.6986 39.8705V44.5184L94.6416 36.8746V32.2268Z" fill="black"/>
<path id="Vector_63" d="M94.6416 32.2269C90.0807 29.1223 83.9984 27.4849 76.9487 27.4631L77.4016 34.9946L77.6986 39.8706L94.6416 32.2269Z" fill="#7E57C2"/>
<path id="Vector_64" opacity="0.1" d="M94.6416 32.2269C90.0807 29.1223 83.9984 27.4849 76.9487 27.4631L77.4016 34.9946L77.6986 39.8706L94.6416 32.2269Z" fill="black"/>
<path id="Vector_65" d="M76.9451 27.4631V32.111L77.6986 44.5184V39.8706L76.9451 27.4631Z" fill="#263238"/>
<path id="Vector_66" d="M81.1437 48.8221L89.8054 57.1542C90.2909 56.9694 90.7401 56.7919 91.2545 56.5456C97.2209 53.8576 100.34 49.8292 100.336 45.7646V41.1639C99.6807 39.4142 97.8766 39.4178 95.9892 37.8782L78.3 45.8479L78.1225 45.9276L81.1437 48.8221Z" fill="#7E57C2"/>
<path id="Vector_67" opacity="0.6" d="M81.1437 48.8221L89.8054 57.1542C90.2909 56.9694 90.7401 56.7919 91.2545 56.5456C97.2209 53.8576 100.34 49.8292 100.336 45.7646V41.1639C99.6807 39.4142 97.8766 39.4178 95.9892 37.8782L78.3 45.8479L78.1225 45.9276L81.1437 48.8221Z" fill="white"/>
<path id="Vector_68" d="M81.1437 44.1743L89.8054 52.5063C90.2909 52.3215 90.7401 52.144 91.2545 51.8941C101.242 47.3839 103.242 39.1243 95.9965 33.2158L78.3072 41.1856L78.1297 41.2653L81.1437 44.1743Z" fill="#7E57C2"/>
<path id="Vector_69" opacity="0.8" d="M81.1437 44.1743L89.8054 52.5063C90.2909 52.3215 90.7401 52.144 91.2545 51.8941C101.242 47.3839 103.242 39.1243 95.9965 33.2158L78.3072 41.1856L78.1297 41.2653L81.1437 44.1743Z" fill="white"/>
<path id="Vector_70" d="M89.7909 57.1468V52.4954L78.1116 41.2761V45.9239L89.7909 57.1468Z" fill="#7E57C2"/>
<path id="Vector_71" opacity="0.6" d="M89.7909 57.1468V52.4954L78.1116 41.2761V45.9239L89.7909 57.1468Z" fill="white"/>
<path id="Vector_72" d="M59.2051 36.5669C56.7164 38.1355 53.9523 39.1245 52.9453 41.03V45.6814C52.9453 48.1049 54.0719 50.5611 56.4085 52.8071C59.6688 55.9334 64.8311 58.1432 70.9642 59.0235C76.64 59.8614 82.4307 59.4397 87.9253 57.7882V53.1404L80.2997 50.4597L75.8221 46.1451L59.2051 36.5669Z" fill="#7E57C2"/>
<path id="Vector_73" opacity="0.6" d="M59.2051 36.5669C56.7164 38.1355 53.9523 39.1245 52.9453 41.03V45.6814C52.9453 48.1049 54.0719 50.5611 56.4085 52.8071C59.6688 55.9334 64.8311 58.1432 70.9642 59.0235C76.64 59.8614 82.4307 59.4397 87.9253 57.7882V53.1404L80.2997 50.4597L75.8221 46.1451L59.2051 36.5669Z" fill="black"/>
<path id="Vector_74" d="M59.2051 31.9189C52.0541 36.4182 50.9021 42.8665 56.4085 48.1555C59.6688 51.2855 64.8311 53.4917 70.9642 54.3756C76.6401 55.2116 82.4304 54.7898 87.9253 53.1403L80.2997 45.8117L75.8221 41.5117L59.2051 31.9189Z" fill="#7E57C2"/>
<path id="Vector_75" opacity="0.3" d="M59.2051 31.9189C52.0541 36.4182 50.9021 42.8665 56.4085 48.1555C59.6688 51.2855 64.8311 53.4917 70.9642 54.3756C76.6401 55.2116 82.4304 54.7898 87.9253 53.1403L80.2997 45.8117L75.8221 41.5117L59.2051 31.9189Z" fill="black"/>
<path id="Vector_76" d="M142.181 82.6068C141.696 80.9256 140.828 79.3795 139.645 78.0894C138.251 76.5568 136.618 75.2601 134.809 74.2494C132.71 73.0601 130.477 72.1226 128.158 71.4564C125.603 70.719 122.983 70.2336 120.333 70.0073C117.597 69.7573 114.843 69.7573 112.106 70.0073C109.458 70.234 106.839 70.7193 104.285 71.4564C101.966 72.1226 99.7334 73.0601 97.6339 74.2494C95.8239 75.2597 94.1895 76.5565 92.7941 78.0894C91.6128 79.3802 90.7451 80.9261 90.2582 82.6068C89.8254 84.1615 89.8254 85.8049 90.2582 87.3597C90.7412 89.0409 91.6094 90.5864 92.7941 91.8735C94.19 93.4068 95.8243 94.7047 97.6339 95.7171C99.7325 96.9047 101.964 97.841 104.281 98.5065C106.838 99.2421 109.46 99.7274 112.11 99.9555C114.847 100.202 117.6 100.202 120.337 99.9555C122.987 99.7277 125.609 99.2424 128.165 98.5065C130.484 97.8427 132.716 96.9051 134.813 95.7134C136.624 94.7034 138.26 93.4066 139.656 91.8735C140.838 90.5846 141.706 89.0397 142.192 87.3597C142.62 85.8037 142.616 84.1608 142.181 82.6068Z" fill="#37474F"/>
<path id="Vector_77" d="M89.9286 82.603H142.504V85.2838L89.9286 85.1352V82.603Z" fill="#37474F"/>
<path id="Vector_78" d="M112.103 67.6199L116.214 82.603L104.281 69.0834C106.834 68.3415 109.454 67.8513 112.103 67.6199Z" fill="#455A64"/>
<path id="Vector_79" d="M120.33 67.62L116.222 82.6032L112.11 67.62C114.844 67.3705 117.595 67.3705 120.33 67.62Z" fill="#455A64"/>
<path id="Vector_80" d="M128.155 69.0834L116.222 82.603L120.33 67.6199C122.979 67.8509 125.6 68.3411 128.155 69.0834Z" fill="#455A64"/>
<path id="Vector_81" d="M139.642 75.7166C140.824 77.008 141.692 78.5553 142.178 80.2376L116.225 82.6104L139.642 75.7166Z" fill="#455A64"/>
<path id="Vector_82" d="M142.181 80.2375C142.612 81.7913 142.612 83.4331 142.181 84.9868L116.229 82.6104L142.181 80.2375Z" fill="#455A64"/>
<path id="Vector_83" d="M142.181 84.9867C141.695 86.6675 140.827 88.2134 139.645 89.5041L116.225 82.6211L142.181 84.9867Z" fill="#455A64"/>
<path id="Vector_84" d="M139.649 89.5042C138.251 91.0353 136.615 92.3318 134.806 93.3442L116.218 82.6104L139.649 89.5042Z" fill="#455A64"/>
<path id="Vector_85" d="M116.222 82.6139L128.158 96.1371C125.602 96.8731 122.98 97.3584 120.33 97.5862L116.218 82.603L116.222 82.6139Z" fill="#455A64"/>
<path id="Vector_86" d="M116.218 82.6174L120.33 97.5861C117.593 97.8343 114.839 97.8343 112.103 97.5861L116.218 82.6174Z" fill="#455A64"/>
<path id="Vector_87" d="M116.214 82.614L112.103 97.5863C109.452 97.3582 106.831 96.8729 104.274 96.1373L116.214 82.614Z" fill="#455A64"/>
<path id="Vector_88" d="M116.214 82.614L104.26 96.1373C101.942 95.469 99.7114 94.5316 97.6122 93.3442L116.214 82.614Z" fill="#455A64"/>
<path id="Vector_89" d="M116.207 82.6104L92.7868 89.4933C91.6028 88.2045 90.7347 86.658 90.251 84.9759L116.207 82.6104Z" fill="#455A64"/>
<path id="Vector_90" d="M116.207 82.6104L90.2546 84.9868C89.8217 83.4333 89.8217 81.791 90.2546 80.2375L116.207 82.6104Z" fill="#455A64"/>
<path id="Vector_91" d="M116.207 82.6067L90.2546 80.2339C90.7413 78.5521 91.609 77.005 92.7905 75.7129L116.207 82.6067Z" fill="#455A64"/>
<path id="Vector_92" d="M97.6303 71.8657L116.207 82.5923L92.7905 75.7093C94.1856 74.1752 95.82 72.8772 97.6303 71.8657Z" fill="#455A64"/>
<path id="Vector_93" d="M134.806 71.8655L116.222 82.5921L128.155 69.0725C130.474 69.7373 132.707 70.6748 134.806 71.8655Z" fill="#455A64"/>
<path id="Vector_94" d="M134.806 71.8657C136.614 72.875 138.247 74.1705 139.642 75.7021L116.229 82.5851L134.806 71.8657Z" fill="#455A64"/>
<path id="Vector_95" d="M116.214 82.6067L97.6267 93.3441C95.818 92.3318 94.1839 91.0353 92.7868 89.5042L116.207 82.6212L116.214 82.6067Z" fill="#455A64"/>
<path id="Vector_96" d="M104.281 69.0835L116.214 82.6031L97.6303 71.8657C99.7296 70.6787 101.962 69.7448 104.281 69.0835Z" fill="#455A64"/>
<path id="Vector_97" d="M116.222 82.614L134.806 93.3442C132.707 94.5329 130.476 95.4703 128.158 96.1373L116.222 82.614Z" fill="#455A64"/>
<path id="Vector_98" d="M93.0585 76.7236V84.2514C92.8678 83.5636 92.7703 82.8532 92.7687 82.1394V76.7236H93.0585Z" fill="#7E57C2"/>
<path id="Vector_99" opacity="0.3" d="M93.0585 76.7236V84.2514C92.8678 83.5636 92.7703 82.8532 92.7687 82.1394V76.7236H93.0585Z" fill="black"/>
<path id="Vector_100" d="M116.207 76.7308L93.0585 78.8464C92.6745 77.4609 92.6745 75.9971 93.0585 74.6116L116.207 76.7308Z" fill="#7E57C2"/>
<path id="Vector_101" d="M116.207 76.7235L93.0585 74.6042C93.4936 73.1042 94.2683 71.7245 95.3227 70.5723L116.207 76.7235Z" fill="#7E57C2"/>
<path id="Vector_102" d="M99.6372 67.1562L116.207 76.7236L95.3227 70.5651C96.5685 69.2045 98.0253 68.0535 99.6372 67.1562Z" fill="#7E57C2"/>
<path id="Vector_103" d="M105.571 64.6638L116.214 76.7199L99.6372 67.1562C101.51 66.0939 103.502 65.2573 105.571 64.6638Z" fill="#7E57C2"/>
<path id="Vector_104" d="M112.548 63.3596L116.214 76.7199L105.571 64.6638C107.848 64.0013 110.185 63.5645 112.548 63.3596Z" fill="#7E57C2"/>
<path id="Vector_105" d="M119.906 63.3596L116.222 76.7199L112.555 63.3596C115 63.1344 117.461 63.1344 119.906 63.3596Z" fill="#7E57C2"/>
<path id="Vector_106" d="M126.865 64.6638L116.222 76.7199L119.906 63.3596C122.263 63.5656 124.593 64.0025 126.865 64.6638Z" fill="#7E57C2"/>
<g id="Group" opacity="0.2">
<path id="Vector_107" d="M116.207 76.7308L93.0585 78.8464C92.6745 77.4609 92.6745 75.9971 93.0585 74.6116L116.207 76.7308Z" fill="white"/>
<path id="Vector_108" d="M116.207 76.7235L93.0585 74.6042C93.4936 73.1042 94.2683 71.7245 95.3227 70.5723L116.207 76.7235Z" fill="white"/>
<path id="Vector_109" d="M99.6372 67.156L116.207 76.7234L95.3227 70.5649C96.5684 69.2043 98.0253 68.0532 99.6372 67.156Z" fill="white"/>
<path id="Vector_110" d="M105.571 64.6638L116.214 76.7199L99.6372 67.1562C101.51 66.0939 103.502 65.2573 105.571 64.6638Z" fill="white"/>
<path id="Vector_111" d="M112.548 63.3596L116.214 76.7199L105.571 64.6638C107.848 64.0013 110.185 63.5645 112.548 63.3596Z" fill="white"/>
<path id="Vector_112" d="M119.906 63.3596L116.222 76.7199L112.555 63.3596C115 63.1344 117.461 63.1344 119.906 63.3596Z" fill="white"/>
<path id="Vector_113" d="M126.865 64.6638L116.222 76.7199L119.906 63.3596C122.263 63.5656 124.593 64.0025 126.865 64.6638Z" fill="white"/>
</g>
<path id="Vector_114" d="M135.845 80.3388L132.371 83.5992L129.73 86.0951L127.213 88.4643L126.876 88.7795V94.1881C128.945 93.5951 130.937 92.7598 132.81 91.6993C134.423 90.7944 135.881 89.6361 137.128 88.2687C138.182 87.1201 138.954 85.7423 139.385 84.244C139.577 83.5563 139.675 82.846 139.678 82.132V76.7271L135.845 80.3388Z" fill="#7E57C2"/>
<path id="Vector_115" opacity="0.3" d="M135.845 80.3388L132.371 83.5992L129.73 86.0951L127.213 88.4643L126.876 88.7795V94.1881C128.945 93.5951 130.937 92.7598 132.81 91.6993C134.423 90.7944 135.881 89.6361 137.128 88.2687C138.182 87.1201 138.954 85.7423 139.385 84.244C139.577 83.5563 139.675 82.846 139.678 82.132V76.7271L135.845 80.3388Z" fill="black"/>
<path id="Vector_116" d="M137.113 70.5796C138.166 71.7329 138.941 73.1122 139.377 74.6116L116.225 76.7308L137.113 70.5796Z" fill="#7E57C2"/>
<path id="Vector_117" d="M139.667 76.7345C139.664 77.4496 139.566 78.1611 139.374 78.8501L132.36 78.2053L116.225 76.7272L135.834 74.9159L139.374 74.5935C139.568 75.2907 139.666 76.0109 139.667 76.7345Z" fill="#7E57C2"/>
<path id="Vector_118" d="M139.374 78.85C138.943 80.348 138.17 81.7256 137.117 82.8748L129.719 80.7012L116.225 76.7163L132.36 78.1943L139.374 78.85Z" fill="#7E57C2"/>
<path id="Vector_119" d="M137.117 82.8747C135.87 84.2421 134.412 85.4004 132.799 86.3053L127.202 83.0667L116.229 76.7344L129.723 80.7193L137.117 82.8747Z" fill="#7E57C2"/>
<path id="Vector_120" d="M132.799 67.1563L116.222 76.7272L126.865 64.6711C128.934 65.2637 130.925 66.0978 132.799 67.1563Z" fill="#7E57C2"/>
<path id="Vector_121" d="M132.799 67.1562C134.411 68.0588 135.868 69.2147 137.113 70.5796L116.225 76.7381L132.799 67.1562Z" fill="#7E57C2"/>
<path id="Vector_122" d="M132.799 86.3053C130.926 87.3646 128.934 88.1987 126.865 88.7905L116.229 76.7344L127.202 83.0667L132.799 86.3053Z" fill="#7E57C2"/>
<g id="Group_2" opacity="0.2">
<path id="Vector_123" d="M137.113 70.5796C138.166 71.7329 138.941 73.1122 139.377 74.6116L116.225 76.7308L137.113 70.5796Z" fill="white"/>
<path id="Vector_124" d="M139.667 76.7345C139.664 77.4496 139.566 78.1611 139.374 78.8501L132.36 78.2053L116.225 76.7272L135.834 74.9159L139.374 74.5935C139.568 75.2907 139.666 76.0109 139.667 76.7345Z" fill="white"/>
<path id="Vector_125" d="M139.374 78.85C138.943 80.348 138.17 81.7256 137.117 82.8748L129.719 80.7012L116.225 76.7163L132.36 78.1943L139.374 78.85Z" fill="white"/>
<path id="Vector_126" d="M137.117 82.8747C135.87 84.2421 134.412 85.4004 132.799 86.3053L127.202 83.0667L116.229 76.7344L129.723 80.7193L137.117 82.8747Z" fill="white"/>
<path id="Vector_127" d="M132.799 67.1563L116.222 76.7272L126.865 64.6711C128.934 65.2637 130.925 66.0978 132.799 67.1563Z" fill="white"/>
<path id="Vector_128" d="M132.799 67.1562C134.411 68.0588 135.868 69.2147 137.113 70.5796L116.225 76.7381L132.799 67.1562Z" fill="white"/>
<path id="Vector_129" d="M132.799 86.3053C130.926 87.3646 128.934 88.1987 126.865 88.7905L116.229 76.7344L127.202 83.0667L132.799 86.3053Z" fill="white"/>
</g>
<path id="Vector_130" d="M126.868 88.7942V94.2027L116.214 82.1322V76.72L126.868 88.7942Z" fill="#263238"/>
<path id="Vector_131" d="M116.214 82.1322L93.0585 84.2586V78.8464L116.214 76.72V82.1322Z" fill="#7E57C2"/>
<path id="Vector_132" opacity="0.1" d="M116.214 82.1322L93.0585 84.2586V78.8464L116.214 76.72V82.1322Z" fill="black"/>
<path id="Vector_133" d="M63.0306 82.6068C62.545 80.9256 61.6771 79.3795 60.4948 78.0894C59.0999 76.5575 57.4668 75.2608 55.6586 74.2494C53.5581 73.0595 51.3244 72.122 49.0038 71.4564C46.4504 70.719 43.8308 70.2336 41.1826 70.0073C38.446 69.7573 35.6923 69.7573 32.9556 70.0073C30.3063 70.234 27.6855 70.7193 25.1308 71.4564C22.8091 72.1221 20.5742 73.0596 18.4724 74.2494C16.6637 75.2601 15.0305 76.5568 13.6362 78.0894C12.4538 79.3795 11.5859 80.9256 11.1003 82.6068C10.671 84.162 10.671 85.8045 11.1003 87.3597C11.5851 89.0401 12.4531 90.5853 13.6362 91.8735C15.0302 93.4073 16.6634 94.7053 18.4724 95.7171C20.5703 96.906 22.8017 97.8424 25.1199 98.5065C27.6762 99.2424 30.298 99.7277 32.9484 99.9555C35.6852 100.202 38.4386 100.202 41.1754 99.9555C43.8257 99.7277 46.4476 99.2424 49.0038 98.5065C51.3227 97.8427 53.5543 96.9051 55.6514 95.7134C57.4629 94.7038 59.0986 93.407 60.4948 91.8735C61.6778 90.5853 62.5459 89.0401 63.0306 87.3597C63.46 85.8045 63.46 84.162 63.0306 82.6068Z" fill="#37474F"/>
<path id="Vector_134" d="M10.7743 82.603H63.3494V85.2838L10.7743 85.1352V82.603Z" fill="#37474F"/>
<path id="Vector_135" d="M32.9629 67.6199L37.0709 82.603L25.138 69.0834C27.6923 68.3415 30.3131 67.8513 32.9629 67.6199Z" fill="#455A64"/>
<path id="Vector_136" d="M41.1753 67.6199L37.0673 82.6031L32.9629 67.6199C35.6947 67.3708 38.4435 67.3708 41.1753 67.6199Z" fill="#455A64"/>
<path id="Vector_137" d="M48.9966 69.0834L37.0673 82.603L41.1753 67.6199C43.824 67.8509 46.4436 68.3411 48.9966 69.0834Z" fill="#455A64"/>
<path id="Vector_138" d="M60.4948 75.7166C61.6772 77.008 62.545 78.5553 63.0306 80.2376L37.0745 82.6104L60.4948 75.7166Z" fill="#455A64"/>
<path id="Vector_139" d="M63.0306 80.2375C63.4599 81.7915 63.4599 83.4328 63.0306 84.9868L37.0745 82.6104L63.0306 80.2375Z" fill="#455A64"/>
<path id="Vector_140" d="M63.0306 84.9867C62.5451 86.6679 61.6772 88.2141 60.4948 89.5041L37.0745 82.6211L63.0306 84.9867Z" fill="#455A64"/>
<path id="Vector_141" d="M60.4948 89.5042C59.0977 91.0353 57.4636 92.3318 55.655 93.3442L37.0637 82.6104L60.4948 89.5042Z" fill="#455A64"/>
<path id="Vector_142" d="M37.0673 82.6139L49.0038 96.1371C46.4475 96.8731 43.8257 97.3584 41.1753 97.5862L37.06 82.603L37.0673 82.6139Z" fill="#455A64"/>
<path id="Vector_143" d="M37.06 82.6174L41.1753 97.5861C38.4434 97.8334 35.6948 97.8334 32.9629 97.5861L37.06 82.6174Z" fill="#455A64"/>
<path id="Vector_144" d="M37.0564 82.614L32.9629 97.5863C30.3125 97.3585 27.6906 96.8732 25.1344 96.1373L37.0564 82.614Z" fill="#455A64"/>
<path id="Vector_145" d="M37.0564 82.614L25.1018 96.1373C22.7902 95.469 20.5652 94.5316 18.4724 93.3442L37.0564 82.614Z" fill="#455A64"/>
<path id="Vector_146" d="M37.0528 82.6104L13.6325 89.4933C12.4501 88.2033 11.5822 86.6572 11.0967 84.9759L37.0528 82.6104Z" fill="#455A64"/>
<path id="Vector_147" d="M37.0528 82.6104L11.0967 84.9868C10.6675 83.4328 10.6675 81.7915 11.0967 80.2375L37.0528 82.6104Z" fill="#455A64"/>
<path id="Vector_148" d="M37.0528 82.6067L11.0967 80.2339C11.5823 78.5516 12.4502 77.0043 13.6325 75.7129L37.0528 82.6067Z" fill="#455A64"/>
<path id="Vector_149" d="M18.4724 71.8657L37.0528 82.5923L13.6362 75.7093C15.0299 74.1752 16.6632 72.8772 18.4724 71.8657Z" fill="#455A64"/>
<path id="Vector_150" d="M55.6513 71.8655L37.0673 82.5921L48.9966 69.0725C51.3177 69.7366 53.5516 70.6742 55.6513 71.8655Z" fill="#455A64"/>
<path id="Vector_151" d="M55.6513 71.8657C57.463 72.8797 59.0986 74.1801 60.4948 75.7166L37.0782 82.5996L55.6513 71.8657Z" fill="#455A64"/>
<path id="Vector_152" d="M37.0564 82.6067L18.4724 93.3441C16.6631 92.3327 15.0288 91.0361 13.6325 89.5042L37.0528 82.6212L37.0564 82.6067Z" fill="#455A64"/>
<path id="Vector_153" d="M25.1235 69.0835L37.0564 82.6031L18.4724 71.8657C20.5717 70.6787 22.8043 69.7448 25.1235 69.0835Z" fill="#455A64"/>
<path id="Vector_154" d="M37.0673 82.614L55.6513 93.3442C53.5528 94.5329 51.3216 95.4703 49.0038 96.1373L37.0673 82.614Z" fill="#455A64"/>
<path id="Vector_155" d="M44.0517 73.3146L47.0476 69.9166C47.0476 65.9317 42.1788 65.8339 40.027 65.6419C37.8751 65.4499 34.1837 64.2146 34.1837 68.7501L35.2125 72.5032C38.1832 72.3123 41.1654 72.5861 44.0517 73.3146Z" fill="#7E57C2"/>
<path id="Vector_156" opacity="0.6" d="M44.0517 73.3146L47.0476 69.9166C47.0476 65.9317 42.1788 65.8339 40.027 65.6419C37.8751 65.4499 34.1837 64.2146 34.1837 68.7501L35.2125 72.5032C38.1832 72.3123 41.1654 72.5861 44.0517 73.3146Z" fill="white"/>
<path id="Vector_157" d="M44.0517 67.9786L47.0476 64.5842C42.8526 63.4924 38.5066 63.0983 34.1837 63.4177L35.2125 67.1562C38.1838 66.9689 41.166 67.2464 44.0517 67.9786Z" fill="#7E57C2"/>
<path id="Vector_158" opacity="0.8" d="M44.0517 67.9786L47.0476 64.5842C42.8526 63.4924 38.5066 63.0983 34.1837 63.4177L35.2125 67.1562C38.1838 66.9689 41.166 67.2464 44.0517 67.9786Z" fill="white"/>
<path id="Vector_159" d="M35.2125 67.1708V72.5105L34.1837 68.7575V63.4177L35.2125 67.1708Z" fill="#7E57C2"/>
<path id="Vector_160" d="M47.0476 64.5842L44.0517 67.9786V73.322L47.0476 69.924V64.5842Z" fill="#7E57C2"/>
<g id="Group_3" opacity="0.6">
<path id="Vector_161" d="M35.2125 67.1708V72.5105L34.1837 68.7575V63.4177L35.2125 67.1708Z" fill="white"/>
<path id="Vector_162" d="M47.0476 64.5842L44.0517 67.9786V73.322L47.0476 69.924V64.5842Z" fill="white"/>
</g>
<path id="Vector_163" d="M45.5152 68.4096V73.7493C46.7652 74.1529 47.9715 74.6808 49.1161 75.3252C50.1149 75.8923 51.0325 76.5917 51.844 77.4046L57.7198 75.6766C56.5515 74.484 55.221 73.4621 53.7676 72.6408C52.1627 71.7207 50.4456 67.9894 45.5152 68.4096Z" fill="#7E57C2"/>
<path id="Vector_164" opacity="0.6" d="M45.5152 68.4096V73.7493C46.7652 74.1529 47.9715 74.6808 49.1161 75.3252C50.1149 75.8923 51.0325 76.5917 51.844 77.4046L57.7198 75.6766C56.5515 74.484 55.221 73.4621 53.7676 72.6408C52.1627 71.7207 50.4456 67.9894 45.5152 68.4096Z" fill="black"/>
<path id="Vector_165" d="M48.5111 65.0188L45.5152 68.4096C46.7664 68.81 47.973 69.3381 49.1161 69.9854C50.1149 70.5525 51.0325 71.252 51.844 72.0648L57.7198 70.3368C56.5535 69.1421 55.2226 68.1199 53.7676 67.301C52.1021 66.3545 50.3399 65.5894 48.5111 65.0188Z" fill="#7E57C2"/>
<path id="Vector_166" opacity="0.3" d="M48.5111 65.0188L45.5152 68.4096C46.7664 68.81 47.973 69.3381 49.1161 69.9854C50.1149 70.5525 51.0325 71.252 51.844 72.0648L57.7198 70.3368C56.5535 69.1421 55.2226 68.1199 53.7676 67.301C52.1021 66.3545 50.3399 65.5894 48.5111 65.0188Z" fill="black"/>
<path id="Vector_167" d="M51.844 72.0649L57.7199 70.3333V75.6766L51.844 77.4046V72.0649Z" fill="#7E57C2"/>
<path id="Vector_168" opacity="0.6" d="M51.844 72.0649L57.7199 70.3333V75.6766L51.844 77.4046V72.0649Z" fill="black"/>
<path id="Vector_169" d="M60.6687 76.8031H58.6835C58.611 76.7089 58.5494 76.6148 58.477 76.5206L52.5938 72.8979V78.2413C53.8473 79.8534 54.3218 81.614 53.9958 83.342L60.4948 83.9469C60.6048 83.4081 60.6594 82.8595 60.6578 82.3095L60.6687 76.8031Z" fill="#7E57C2"/>
<path id="Vector_170" opacity="0.6" d="M60.6687 76.8031H58.6835C58.611 76.7089 58.5494 76.6148 58.477 76.5206L52.5938 72.8979V78.2413C53.8473 79.8534 54.3218 81.614 53.9958 83.342L60.4948 83.9469C60.6048 83.4081 60.6594 82.8595 60.6578 82.3095L60.6687 76.8031Z" fill="black"/>
<path id="Vector_171" d="M53.9922 78.024L60.4948 78.6073C61.0237 76.0968 60.3535 73.5139 58.4734 71.1809L52.5902 72.9089C53.8436 74.521 54.3363 76.2852 53.9922 78.024Z" fill="#7E57C2"/>
<path id="Vector_172" opacity="0.3" d="M53.9922 78.024L60.4948 78.6073C61.0237 76.0968 60.3535 73.5139 58.4734 71.1809L52.5902 72.9089C53.8436 74.521 54.3363 76.2852 53.9922 78.024Z" fill="black"/>
<path id="Vector_173" d="M60.4948 78.6073V83.9507L53.9922 83.3529V78.0132L60.4948 78.6073Z" fill="#7E57C2"/>
<path id="Vector_174" opacity="0.6" d="M60.4948 78.6073V83.9507L53.9922 83.3529V78.0132L60.4948 78.6073Z" fill="black"/>
<path id="Vector_175" d="M33.5896 72.6625V67.3192C29.967 65.6491 23.2216 67.3445 20.9611 72.3184L25.6126 75.0064C28.111 73.7568 30.8123 72.9631 33.5896 72.6625Z" fill="#7E57C2"/>
<path id="Vector_176" opacity="0.3" d="M33.5896 72.6625V67.3192C29.967 65.6491 23.2216 67.3445 20.9611 72.3184L25.6126 75.0064C28.111 73.7568 30.8123 72.9631 33.5896 72.6625Z" fill="black"/>
<path id="Vector_177" d="M33.5896 67.3193L32.5571 63.5554C28.1774 64.0481 24.1671 65.2544 20.9647 66.9788L25.6162 69.6632C28.1135 68.414 30.8135 67.6203 33.5896 67.3193Z" fill="#7E57C2"/>
<path id="Vector_178" opacity="0.1" d="M33.5896 67.3193L32.5571 63.5554C28.1774 64.0481 24.1671 65.2544 20.9647 66.9788L25.6162 69.6632C28.1135 68.414 30.8135 67.6203 33.5896 67.3193Z" fill="black"/>
<path id="Vector_179" d="M25.6126 69.6631V75.0065L20.9611 72.3185V66.9788L25.6126 69.6631Z" fill="#263238"/>
<path id="Vector_180" d="M20.7474 70.3369L19.791 72.9851C16.6647 74.9195 14.6903 77.2489 13.8789 79.6869L20.3996 80.281C20.9973 78.611 22.3594 77.0207 24.4678 75.6803V70.3369H20.7474Z" fill="#7E57C2"/>
<path id="Vector_181" opacity="0.3" d="M20.7474 70.3369L19.791 72.9851C16.6647 74.9195 14.6903 77.2489 13.8789 79.6869L20.3996 80.281C20.9973 78.611 22.3594 77.0207 24.4678 75.6803V70.3369H20.7474Z" fill="black"/>
<path id="Vector_182" d="M24.4533 70.3369L19.791 67.6453C16.6647 69.5761 14.6903 71.9091 13.8789 74.3435L20.3996 74.9412C20.9828 73.2712 22.3449 71.6772 24.4533 70.3369Z" fill="#7E57C2"/>
<path id="Vector_183" opacity="0.1" d="M24.4533 70.3369L19.791 67.6453C16.6647 69.5761 14.6903 71.9091 13.8789 74.3435L20.3996 74.9412C20.9828 73.2712 22.3449 71.6772 24.4533 70.3369Z" fill="black"/>
<path id="Vector_184" d="M13.8789 74.3435V79.6869L20.3851 80.281V74.9412L13.8789 74.3435Z" fill="#263238"/>
<path id="Vector_185" d="M20.1279 81.2192V75.8758L18.1934 75.7019L13.455 76.9372V82.2733C13.4854 84.3936 14.254 86.4369 15.6286 88.0514L21.5117 86.3234C20.2837 84.7114 19.8055 82.9472 20.1279 81.2192Z" fill="#7E57C2"/>
<path id="Vector_186" opacity="0.3" d="M20.1279 81.2192V75.8758L18.1934 75.7019L13.455 76.9372V82.2733C13.4854 84.3936 14.254 86.4369 15.6286 88.0514L21.5117 86.3234C20.2837 84.7114 19.8055 82.9472 20.1279 81.2192Z" fill="black"/>
<path id="Vector_187" d="M15.6503 82.7118L21.5335 80.9802V86.3236L15.6503 88.0516V82.7118Z" fill="#263238"/>
<path id="Vector_188" d="M20.1315 75.8759L13.6108 75.2817C13.0819 77.7958 13.7521 80.3751 15.6322 82.7117L21.5154 80.9801C20.2837 79.3681 19.8055 77.6038 20.1315 75.8759Z" fill="#7E57C2"/>
<path id="Vector_189" opacity="0.1" d="M20.1315 75.8759L13.6108 75.2817C13.0819 77.7958 13.7521 80.3751 15.6322 82.7117L21.5154 80.9801C20.2837 79.3681 19.8055 77.6038 20.1315 75.8759Z" fill="black"/>
<path id="Vector_190" d="M27.0906 88.0442C24.3338 86.4539 22.9572 84.3709 22.9572 82.2879V76.9373H51.1665V82.277C51.1665 84.3636 49.7899 86.4466 47.0331 88.037C41.5267 91.2249 32.6006 91.2249 27.0906 88.0442Z" fill="#37474F"/>
<path id="Vector_191" d="M37.0637 85.0881C44.8525 85.0881 51.1665 81.442 51.1665 76.9444C51.1665 72.4468 44.8525 68.8008 37.0637 68.8008C29.2749 68.8008 22.9608 72.4468 22.9608 76.9444C22.9608 81.442 29.2749 85.0881 37.0637 85.0881Z" fill="#455A64"/>
<path id="Vector_192" d="M25.6126 89.5731V88.892L16.4002 83.5559V88.892C17.5689 90.0856 18.9008 91.1077 20.3561 91.9278C22.0216 92.8743 23.7839 93.6394 25.6126 94.21L28.6049 90.8193C27.5758 90.4844 26.5752 90.0676 25.6126 89.5731Z" fill="#7E57C2"/>
<path id="Vector_193" opacity="0.3" d="M25.6126 89.5731V88.892L16.4002 83.5559V88.892C17.5689 90.0856 18.9008 91.1077 20.3561 91.9278C22.0216 92.8743 23.7839 93.6394 25.6126 94.21L28.6049 90.8193C27.5758 90.4844 26.5752 90.0676 25.6126 89.5731Z" fill="black"/>
<path id="Vector_194" d="M24.9931 83.9036C23.9932 83.338 23.0744 82.6398 22.2616 81.8279L16.3857 83.5559C17.5554 84.7484 18.8871 85.7704 20.3416 86.5916C22.0079 87.5367 23.7699 88.3017 25.5981 88.8739L28.5904 85.4795C27.3404 85.0791 26.1349 84.551 24.9931 83.9036Z" fill="#7E57C2"/>
<path id="Vector_195" opacity="0.1" d="M24.9931 83.9036C23.9932 83.338 23.0744 82.6398 22.2616 81.8279L16.3857 83.5559C17.5554 84.7484 18.8871 85.7704 20.3416 86.5916C22.0079 87.5367 23.7699 88.3017 25.5981 88.8739L28.5904 85.4795C27.3404 85.0791 26.1349 84.551 24.9931 83.9036Z" fill="black"/>
<path id="Vector_196" d="M25.6125 94.2136V88.8739L28.6048 85.4795V90.8229L25.6125 94.2136Z" fill="#263238"/>
<path id="Vector_197" d="M27.0761 89.3049V94.6483C31.2711 95.7401 35.6171 96.1341 39.94 95.8148V90.475L27.0761 89.3049Z" fill="#7E57C2"/>
<path id="Vector_198" opacity="0.1" d="M27.0761 89.3049V94.6483C31.2711 95.7401 35.6171 96.1341 39.94 95.8148V90.475L27.0761 89.3049Z" fill="black"/>
<path id="Vector_199" d="M30.0648 85.9104L27.0688 89.3048C31.2639 90.396 35.6097 90.7913 39.9328 90.4749L38.9112 86.7182C35.9383 86.9111 32.9535 86.6385 30.0648 85.9104Z" fill="#7E57C2"/>
<path id="Vector_200" opacity="0.2" d="M30.0648 85.9104L27.0688 89.3048C31.2639 90.396 35.6097 90.7913 39.9328 90.4749L38.9112 86.7182C35.9383 86.9111 32.9535 86.6385 30.0648 85.9104Z" fill="white"/>
<path id="Vector_201" d="M49.6704 88.892L54.3363 91.5872C57.4626 89.6564 59.437 87.3234 60.2484 84.8854V79.5457L53.7277 84.2913C53.1409 85.9613 51.7787 87.5553 49.6704 88.892Z" fill="#7E57C2"/>
<path id="Vector_202" opacity="0.1" d="M49.6704 88.892L54.3363 91.5872C57.4626 89.6564 59.437 87.3234 60.2484 84.8854V79.5457L53.7277 84.2913C53.1409 85.9613 51.7787 87.5553 49.6704 88.892Z" fill="black"/>
<path id="Vector_203" d="M49.6704 83.5522L54.3363 86.2474C57.4626 84.3129 59.437 81.9836 60.2484 79.5455L53.7277 78.9514C53.1409 80.6214 51.7787 82.2118 49.6704 83.5522Z" fill="#7E57C2"/>
<path id="Vector_204" opacity="0.2" d="M49.6704 83.5522L54.3363 86.2474C57.4626 84.3129 59.437 81.9836 60.2484 79.5455L53.7277 78.9514C53.1409 80.6214 51.7787 82.2118 49.6704 83.5522Z" fill="white"/>
<path id="Vector_205" d="M54.3327 86.2475V91.5872L49.6704 88.8956V83.5522L54.3327 86.2475Z" fill="#7E57C2"/>
<path id="Vector_206" opacity="0.3" d="M54.3327 86.2475V91.5872L49.6704 88.8956V83.5522L54.3327 86.2475Z" fill="black"/>
<path id="Vector_207" d="M41.5666 90.3411V91.7902C41.2224 91.8445 40.8819 91.8916 40.5341 91.9314L41.5666 95.6917C45.7869 95.2208 49.8225 94.0797 53.159 92.2756V86.9177L41.5666 90.3411Z" fill="#7E57C2"/>
<path id="Vector_208" opacity="0.1" d="M41.5666 90.3411V91.7902C41.2224 91.8445 40.8819 91.8916 40.5341 91.9314L41.5666 95.6917C45.7869 95.2208 49.8225 94.0797 53.159 92.2756V86.9177L41.5666 90.3411Z" fill="black"/>
<path id="Vector_209" d="M40.5341 86.5734L41.5666 90.3409C45.7869 89.8699 49.8225 88.7324 53.159 86.9284L48.4966 84.2332C46.0045 85.4851 43.3073 86.2778 40.5341 86.5734Z" fill="#7E57C2"/>
<path id="Vector_210" opacity="0.2" d="M40.5341 86.5734L41.5666 90.3409C45.7869 89.8699 49.8225 88.7324 53.159 86.9284L48.4966 84.2332C46.0045 85.4851 43.3073 86.2778 40.5341 86.5734Z" fill="white"/>
<path id="Vector_211" d="M41.5666 90.3301V95.6699L40.5341 91.9169V86.5735L41.5666 90.3301Z" fill="#7E57C2"/>
<path id="Vector_212" opacity="0.3" d="M41.5666 90.3301V95.6699L40.5341 91.9169V86.5735L41.5666 90.3301Z" fill="black"/>
</g>
<g id="speech-bubbles">
<path id="Vector_213" d="M131.973 54.6003C131.96 54.3647 131.892 54.1355 131.774 53.931C131.657 53.7265 131.493 53.5525 131.295 53.423L121.485 47.7608C121.123 47.5434 120.808 47.721 120.808 48.1557V57.6361C120.82 57.8718 120.888 58.1013 121.006 58.3058C121.123 58.5104 121.288 58.6843 121.485 58.8134L125.593 61.1826L126.89 66.4318C126.886 66.5279 126.92 66.6217 126.985 66.6927C127.05 66.7637 127.14 66.806 127.236 66.8104C127.332 66.8147 127.426 66.7807 127.497 66.7158C127.568 66.6509 127.61 66.5605 127.615 66.4644L128.803 63.0338L131.313 64.4828C131.676 64.7002 131.991 64.5227 131.991 64.0916L131.973 54.6003Z" fill="#7E57C2"/>
<path id="Vector_214" opacity="0.5" d="M131.973 54.6003C131.96 54.3647 131.892 54.1355 131.774 53.931C131.657 53.7265 131.493 53.5525 131.295 53.423L121.485 47.7608C121.123 47.5434 120.808 47.721 120.808 48.1557V57.6361C120.82 57.8718 120.888 58.1013 121.006 58.3058C121.123 58.5104 121.288 58.6843 121.485 58.8134L125.593 61.1826L126.89 66.4318C126.886 66.5279 126.92 66.6217 126.985 66.6927C127.05 66.7637 127.14 66.806 127.236 66.8104C127.332 66.8147 127.426 66.7807 127.497 66.7158C127.568 66.6509 127.61 66.5605 127.615 66.4644L128.803 63.0338L131.313 64.4828C131.676 64.7002 131.991 64.5227 131.991 64.0916L131.973 54.6003Z" fill="white"/>
<path id="Vector_215" d="M124.525 52.0791C124.725 52.193 124.91 52.3317 125.075 52.4921C125.223 52.636 125.355 52.7951 125.47 52.9666C125.57 53.1185 125.651 53.2814 125.713 53.4521C125.764 53.5972 125.797 53.7481 125.811 53.9013C125.811 54.057 125.829 54.2201 125.829 54.3903C125.829 54.5606 125.829 54.7164 125.811 54.8613C125.802 54.978 125.769 55.0916 125.713 55.1945C125.659 55.2897 125.573 55.3628 125.47 55.401C125.341 55.4365 125.205 55.4365 125.075 55.401C124.88 55.3559 124.694 55.2788 124.525 55.1728C124.323 55.0601 124.137 54.9226 123.97 54.7635C123.822 54.6237 123.691 54.4668 123.579 54.2961C123.39 54.0161 123.272 53.694 123.235 53.3579C123.235 53.2021 123.235 53.0391 123.235 52.8688C123.235 52.6986 123.235 52.5428 123.235 52.4015C123.246 52.2836 123.281 52.1691 123.336 52.0646C123.389 51.968 123.475 51.8944 123.579 51.8581C123.706 51.8182 123.841 51.812 123.97 51.84C124.168 51.8864 124.355 51.9674 124.525 52.0791ZM127.988 54.2853C128.025 54.258 128.069 54.2417 128.115 54.2382C128.181 54.2425 128.244 54.2637 128.299 54.2998L128.817 54.6004C128.877 54.6342 128.929 54.6798 128.97 54.7345C129.003 54.7809 129.022 54.8364 129.024 54.8939C129.025 54.9059 129.025 54.9181 129.024 54.9301C129.018 54.9435 129.009 54.9558 128.999 54.9663L124.731 58.118C124.694 58.1456 124.65 58.163 124.604 58.1687C124.538 58.1644 124.474 58.1418 124.42 58.1035L123.902 57.8065C123.841 57.7723 123.789 57.7253 123.749 57.6688C123.714 57.6241 123.694 57.5697 123.691 57.513C123.689 57.4999 123.689 57.4863 123.691 57.4732C123.696 57.459 123.705 57.4465 123.717 57.4369L127.988 54.2853ZM124.981 54.2853C124.986 54.2323 124.986 54.1789 124.981 54.1259V53.6586C124.986 53.6019 124.986 53.5449 124.981 53.4883C124.969 53.361 124.931 53.2376 124.869 53.126C124.785 52.9904 124.666 52.8801 124.525 52.8072C124.358 52.7094 124.242 52.6841 124.162 52.7275C124.128 52.7551 124.1 52.7898 124.081 52.8292C124.062 52.8686 124.051 52.9118 124.05 52.9558C124.05 52.9884 124.05 53.0391 124.05 53.1152C124.05 53.1912 124.05 53.2637 124.05 53.3434C124.05 53.4231 124.05 53.5028 124.05 53.5789C124.05 53.6549 124.05 53.7129 124.05 53.7527C124.064 53.8796 124.102 54.0027 124.162 54.115C124.251 54.2528 124.377 54.3632 124.525 54.4338C124.691 54.5316 124.807 54.557 124.869 54.5135C124.902 54.4873 124.928 54.4543 124.947 54.4168C124.966 54.3792 124.976 54.3381 124.977 54.2961L124.981 54.2853ZM128.263 57.2594C128.465 57.3733 128.651 57.5121 128.817 57.6724C128.964 57.8163 129.095 57.9754 129.209 58.147C129.311 58.2972 129.393 58.4605 129.451 58.6324C129.502 58.7779 129.536 58.9286 129.553 59.0816C129.553 59.2374 129.553 59.4004 129.553 59.5707C129.553 59.7409 129.553 59.8967 129.553 60.0416C129.542 60.1584 129.507 60.2717 129.451 60.3749C129.427 60.4237 129.392 60.467 129.351 60.5025C129.309 60.5379 129.261 60.5648 129.209 60.5814C129.081 60.6188 128.945 60.6188 128.817 60.5814C128.621 60.5362 128.434 60.4591 128.263 60.3532C128.063 60.2405 127.878 60.1029 127.713 59.9438C127.564 59.8031 127.432 59.6464 127.318 59.4765C127.217 59.3251 127.136 59.1621 127.075 58.9911C127.024 58.8458 126.991 58.695 126.977 58.5419C126.977 58.3825 126.977 58.2194 126.977 58.0492C126.977 57.8789 126.977 57.7231 126.977 57.5819C126.985 57.4639 127.019 57.349 127.075 57.245C127.128 57.149 127.214 57.0756 127.318 57.0385C127.447 57.0065 127.583 57.0065 127.713 57.0385C127.908 57.0828 128.095 57.1612 128.263 57.2703V57.2594ZM128.723 59.4765C128.726 59.4234 128.726 59.3702 128.723 59.3171V58.8606C128.723 58.7882 128.723 58.7302 128.723 58.694C128.708 58.5674 128.67 58.4447 128.611 58.3317C128.521 58.1949 128.396 58.0848 128.249 58.0129C128.082 57.9151 127.966 57.8898 127.905 57.9332C127.87 57.9608 127.842 57.9955 127.823 58.0349C127.804 58.0743 127.793 58.1175 127.792 58.1615C127.789 58.2145 127.789 58.2678 127.792 58.3209C127.792 58.3933 127.792 58.4694 127.792 58.5491C127.792 58.6288 127.792 58.7085 127.792 58.7882C127.789 58.8449 127.789 58.9017 127.792 58.9584C127.803 59.0858 127.842 59.2093 127.905 59.3207C127.987 59.4572 128.106 59.5677 128.249 59.6395C128.415 59.7373 128.531 59.7627 128.611 59.7192C128.645 59.6906 128.673 59.6552 128.692 59.6153C128.711 59.5753 128.722 59.5317 128.723 59.4873V59.4765Z" fill="#FAFAFA"/>
<path id="Vector_216" d="M89.5337 18.251C89.5206 18.0155 89.4524 17.7863 89.3348 17.5819C89.2172 17.3774 89.0533 17.2034 88.8563 17.0736L79.0462 11.4151C78.684 11.1978 78.3688 11.3716 78.3688 11.8064V21.2868C78.3814 21.5229 78.4493 21.7528 78.5669 21.9579C78.6846 22.163 78.8488 22.3376 79.0462 22.4677L83.1543 24.8369L84.4512 30.0752C84.4654 30.1564 84.5068 30.2303 84.5687 30.2847C84.6305 30.3391 84.709 30.3709 84.7913 30.3747C84.8736 30.3785 84.9548 30.3541 85.0213 30.3056C85.0879 30.2571 85.136 30.1873 85.1576 30.1078L86.3458 26.6772L88.8563 28.1263C89.2186 28.3436 89.5337 28.1697 89.5337 27.735V18.251Z" fill="#7E57C2"/>
<path id="Vector_217" opacity="0.5" d="M89.5337 18.251C89.5206 18.0155 89.4524 17.7863 89.3348 17.5819C89.2172 17.3774 89.0533 17.2034 88.8563 17.0736L79.0462 11.4151C78.684 11.1978 78.3688 11.3716 78.3688 11.8064V21.2868C78.3814 21.5229 78.4493 21.7528 78.5669 21.9579C78.6846 22.163 78.8488 22.3376 79.0462 22.4677L83.1543 24.8369L84.4512 30.0752C84.4654 30.1564 84.5068 30.2303 84.5687 30.2847C84.6305 30.3391 84.709 30.3709 84.7913 30.3747C84.8736 30.3785 84.9548 30.3541 85.0213 30.3056C85.0879 30.2571 85.136 30.1873 85.1576 30.1078L86.3458 26.6772L88.8563 28.1263C89.2186 28.3436 89.5337 28.1697 89.5337 27.735V18.251Z" fill="white"/>
<path id="Vector_218" d="M82.0856 15.7442C82.2858 15.8581 82.4708 15.9969 82.6362 16.1572C82.7833 16.3019 82.9155 16.4609 83.0311 16.6317C83.132 16.7828 83.2135 16.9459 83.2738 17.1172C83.3249 17.2623 83.3577 17.4132 83.3716 17.5664C83.3716 17.7222 83.3898 17.8852 83.3898 18.0554C83.3898 18.2257 83.3898 18.3815 83.3716 18.5264C83.3633 18.6443 83.33 18.7592 83.2738 18.8633C83.2213 18.959 83.1346 19.0314 83.0311 19.0662C82.9035 19.1077 82.7671 19.114 82.6362 19.0843C82.4408 19.0391 82.2545 18.9607 82.0856 18.8524C81.8836 18.741 81.6973 18.6033 81.5314 18.4431C81.3829 18.3033 81.2516 18.1465 81.1401 17.9757C81.0378 17.8255 80.9562 17.6623 80.8974 17.4903C80.847 17.3448 80.813 17.1941 80.796 17.0411C80.796 16.8817 80.796 16.7187 80.796 16.5521C80.796 16.3854 80.796 16.2224 80.796 16.0811C80.8071 15.9632 80.8416 15.8487 80.8974 15.7442C80.9498 15.6476 81.0363 15.574 81.1401 15.5377C81.2685 15.5057 81.4029 15.5057 81.5314 15.5377C81.7266 15.574 81.9142 15.6439 82.0856 15.7442ZM85.5488 17.9504C85.5867 17.9248 85.6302 17.9086 85.6756 17.9033C85.742 17.9076 85.806 17.9302 85.8604 17.9685L86.3784 18.2655C86.437 18.3004 86.4886 18.3458 86.5306 18.3996C86.5641 18.4462 86.583 18.5016 86.5849 18.559C86.5863 18.5722 86.5863 18.5856 86.5849 18.5988C86.5777 18.6117 86.5692 18.6239 86.5596 18.6351L82.2921 21.7867C82.2542 21.8123 82.2107 21.8285 82.1653 21.8338C82.0989 21.8295 82.035 21.8069 81.9806 21.7686L81.4625 21.4716C81.4025 21.4388 81.3505 21.393 81.3104 21.3375C81.2769 21.291 81.258 21.2355 81.256 21.1781C81.2526 21.1663 81.2526 21.1537 81.256 21.1419C81.261 21.1267 81.2697 21.113 81.2814 21.1021L85.5488 17.9504ZM82.5421 17.9504C82.5473 17.8974 82.5473 17.844 82.5421 17.791V17.3237C82.547 17.2682 82.547 17.2125 82.5421 17.157C82.5314 17.0295 82.4931 16.9059 82.4298 16.7948C82.3475 16.6572 82.2283 16.5454 82.0856 16.4724C81.919 16.3782 81.803 16.3492 81.7233 16.3963C81.6898 16.4244 81.6625 16.4593 81.6432 16.4986C81.6238 16.5379 81.6129 16.5807 81.611 16.6245C81.611 16.6535 81.611 16.7078 81.611 16.7803C81.611 16.8527 81.611 16.9288 81.611 17.0121C81.611 17.0954 81.611 17.1715 81.611 17.2476C81.611 17.3237 81.611 17.3816 81.611 17.4179C81.6252 17.5446 81.6633 17.6676 81.7233 17.7801C81.8122 17.9179 81.9376 18.0283 82.0856 18.0989C82.2523 18.1967 82.3682 18.2221 82.4298 18.1786C82.4632 18.1528 82.4906 18.1199 82.51 18.0824C82.5294 18.0448 82.5403 18.0035 82.5421 17.9612V17.9504ZM85.8242 20.9246C86.0264 21.0385 86.2128 21.1785 86.3784 21.3412C86.5261 21.4829 86.6574 21.6409 86.7697 21.8121C86.8713 21.9627 86.9529 22.1259 87.0124 22.2975C87.0624 22.4431 87.0964 22.5938 87.1138 22.7467C87.1138 22.9061 87.1138 23.0691 87.1138 23.2394C87.1138 23.4097 87.1138 23.5654 87.1138 23.7067C87.1026 23.8246 87.0682 23.9392 87.0124 24.0436C86.96 24.1403 86.8734 24.2139 86.7697 24.2501C86.6417 24.286 86.5064 24.286 86.3784 24.2501C86.1824 24.205 85.9951 24.1279 85.8242 24.0219C85.6255 23.9071 85.4407 23.7697 85.2735 23.6125C85.1258 23.4698 84.9934 23.312 84.8787 23.1416C84.7792 22.9898 84.6977 22.8269 84.6359 22.6562C84.5849 22.5111 84.552 22.3602 84.5381 22.207C84.5381 22.0512 84.52 21.8882 84.52 21.7179C84.52 21.5476 84.52 21.3919 84.5381 21.247C84.5469 21.1291 84.5802 21.0143 84.6359 20.9101C84.6903 20.8159 84.7763 20.744 84.8787 20.7072C85.0062 20.6661 85.1422 20.6586 85.2735 20.6855C85.4701 20.7364 85.6564 20.821 85.8242 20.9354V20.9246ZM86.2842 23.1416C86.2872 23.0885 86.2872 23.0353 86.2842 22.9822V22.5258C86.2842 22.4533 86.2842 22.3953 86.2842 22.3591C86.2717 22.232 86.2335 22.1087 86.1719 21.9969C86.0833 21.858 85.9579 21.7464 85.8097 21.6744C85.643 21.5802 85.5271 21.5513 85.4655 21.5984C85.4307 21.6254 85.4024 21.66 85.383 21.6995C85.3635 21.739 85.3533 21.7825 85.3532 21.8266C85.3493 21.8784 85.3493 21.9305 85.3532 21.9824C85.3532 22.0548 85.3532 22.1309 85.3532 22.2142C85.3532 22.2975 85.3532 22.3736 85.3532 22.4497C85.3496 22.5064 85.3496 22.5632 85.3532 22.6199C85.3639 22.7474 85.4022 22.871 85.4655 22.9822C85.5477 23.1198 85.667 23.2315 85.8097 23.3046C85.9763 23.3988 86.0971 23.4242 86.1719 23.3807C86.2062 23.3532 86.234 23.3185 86.2534 23.279C86.2728 23.2396 86.2833 23.1964 86.2842 23.1525V23.1416Z" fill="#FAFAFA"/>
<path id="Vector_219" d="M22.1819 54.3069C22.1948 54.0713 22.2628 53.842 22.3805 53.6375C22.4981 53.433 22.6622 53.259 22.8594 53.1295L32.6694 47.4673C33.0317 47.25 33.3469 47.4275 33.3469 47.8622V57.3426C33.3346 57.5783 33.2668 57.8078 33.1491 58.0124C33.0314 58.217 32.867 58.3909 32.6694 58.52L28.5614 60.8892L27.2645 66.1311C27.2688 66.2272 27.2348 66.321 27.1699 66.392C27.105 66.463 27.0146 66.5053 26.9185 66.5097C26.8224 66.514 26.7286 66.48 26.6576 66.4151C26.5866 66.3502 26.5443 66.2598 26.54 66.1637L25.3554 62.7331L22.8449 64.1821C22.4826 64.3995 22.1674 64.222 22.1674 63.7909L22.1819 54.3069Z" fill="#7E57C2"/>
<g id="Group_4" opacity="0.5">
<path id="Vector_220" d="M22.1819 54.3069C22.1948 54.0713 22.2628 53.842 22.3805 53.6375C22.4981 53.433 22.6622 53.259 22.8594 53.1295L32.6694 47.4673C33.0317 47.25 33.3469 47.4275 33.3469 47.8622V57.3426C33.3346 57.5783 33.2668 57.8078 33.1491 58.0124C33.0314 58.217 32.867 58.3909 32.6694 58.52L28.5614 60.8892L27.2645 66.1311C27.2688 66.2272 27.2348 66.321 27.1699 66.392C27.105 66.463 27.0146 66.5053 26.9185 66.5097C26.8224 66.514 26.7286 66.48 26.6576 66.4151C26.5866 66.3502 26.5443 66.2598 26.54 66.1637L25.3554 62.7331L22.8449 64.1821C22.4826 64.3995 22.1674 64.222 22.1674 63.7909L22.1819 54.3069Z" fill="white"/>
</g>
<path id="Vector_221" d="M25.6089 53.6006C25.805 53.4787 26.0207 53.3916 26.2465 53.3434C26.3981 53.3127 26.5549 53.3202 26.703 53.3651C26.822 53.408 26.9212 53.4931 26.9819 53.6042C27.0467 53.7239 27.085 53.8561 27.0942 53.9918C27.1087 54.1585 27.1159 54.3396 27.1159 54.5352C27.1159 54.7308 27.1087 54.9192 27.0942 55.1003C27.0783 55.2782 27.0406 55.4534 26.9819 55.622C26.9125 55.8188 26.8188 56.0062 26.703 56.1799C26.5719 56.3777 26.4187 56.56 26.2465 56.7233C26.054 56.9067 25.8399 57.0661 25.6089 57.1978C25.4105 57.3192 25.1941 57.4085 24.9677 57.4623C24.8178 57.4957 24.6617 57.4895 24.5149 57.4442C24.3958 57.4012 24.2966 57.3162 24.236 57.2051C24.17 57.0857 24.1305 56.9535 24.12 56.8175C24.12 56.6508 24.12 56.4552 24.12 56.2741C24.12 56.0929 24.12 55.8901 24.12 55.7089C24.1374 55.531 24.1763 55.3558 24.236 55.1873C24.3039 54.9898 24.3977 54.8022 24.5149 54.6294C24.6466 54.432 24.7984 54.2487 24.9677 54.0824C25.161 53.8963 25.3764 53.7345 25.6089 53.6006ZM29.5938 51.5321C29.6349 51.4528 29.6834 51.3776 29.7387 51.3075C29.7997 51.2379 29.8719 51.1791 29.9524 51.1336L30.5538 50.7713C30.6038 50.7345 30.6663 50.7188 30.7277 50.7278C30.7712 50.7278 30.7929 50.7749 30.7929 50.8329C30.7954 50.8521 30.7954 50.8716 30.7929 50.8909L30.7639 50.9669L25.8299 60.306C25.7888 60.3842 25.7403 60.4582 25.685 60.527C25.6248 60.5974 25.5524 60.6563 25.4713 60.7009L24.8735 61.0632C24.8221 61.0999 24.7586 61.1154 24.696 61.1066C24.6526 61.1066 24.6308 61.0596 24.6308 61.0016C24.6283 60.9824 24.6283 60.9629 24.6308 60.9436L24.6598 60.8676L29.5938 51.5321ZM26.1378 55.564C26.1428 55.4989 26.1428 55.4335 26.1378 55.3684V54.8286C26.1431 54.7672 26.1431 54.7054 26.1378 54.6439C26.1358 54.5931 26.1232 54.5434 26.1007 54.4978C26.0783 54.4522 26.0465 54.4119 26.0074 54.3794C25.935 54.3287 25.8009 54.3794 25.6089 54.47C25.4607 54.5447 25.3343 54.6562 25.2416 54.7939C25.149 54.9315 25.0933 55.0907 25.08 55.2561C25.0747 55.3224 25.0747 55.389 25.08 55.4554C25.08 55.5423 25.08 55.6329 25.08 55.727C25.08 55.8212 25.08 55.9082 25.08 55.9951C25.0744 56.0554 25.0744 56.116 25.08 56.1763C25.08 56.2274 25.0918 56.2778 25.1144 56.3237C25.137 56.3695 25.1699 56.4096 25.2104 56.4407C25.2829 56.4914 25.4133 56.4588 25.6089 56.3501C25.7724 56.2681 25.9102 56.1428 26.0074 55.9879C26.0796 55.8571 26.124 55.7128 26.1378 55.564ZM29.9307 54.6221C30.1284 54.5001 30.3452 54.412 30.5719 54.3613C30.7223 54.3307 30.878 54.3382 31.0247 54.3831C31.1438 54.426 31.243 54.511 31.3037 54.6221C31.3696 54.7416 31.4092 54.8738 31.4196 55.0098C31.4196 55.1764 31.4377 55.372 31.4377 55.5532C31.4377 55.7343 31.4377 55.9372 31.4196 56.1183C31.4026 56.2963 31.3636 56.4715 31.3037 56.64C31.2351 56.8383 31.1414 57.027 31.0247 57.2015C30.7473 57.6203 30.3749 57.9678 29.938 58.2158C29.7412 58.338 29.5259 58.4273 29.3004 58.4802C29.1494 58.5155 28.9916 58.5093 28.8439 58.4621C28.7242 58.4204 28.6245 58.335 28.565 58.223C28.4998 58.1035 28.4614 57.9713 28.4527 57.8354C28.4527 57.6724 28.4309 57.4732 28.4309 57.2956C28.4309 57.1181 28.4309 56.908 28.4527 56.7269C28.4683 56.5502 28.5061 56.3762 28.565 56.2089C28.6344 56.0109 28.7281 55.8223 28.8439 55.6474C28.9758 55.449 29.1289 55.2656 29.3004 55.1003C29.4879 54.9102 29.6999 54.7457 29.9307 54.6113V54.6221ZM30.4596 56.5711C30.4646 56.506 30.4646 56.4406 30.4596 56.3755V55.8393C30.4649 55.7779 30.4649 55.7161 30.4596 55.6546C30.4599 55.6034 30.4483 55.5529 30.4256 55.507C30.403 55.4611 30.37 55.4211 30.3292 55.3901C30.2568 55.3394 30.1263 55.3684 29.9307 55.4807C29.7679 55.5637 29.6303 55.6888 29.5322 55.843C29.4623 55.9721 29.418 56.1136 29.4018 56.2596C29.3983 56.3247 29.3983 56.39 29.4018 56.4552C29.4018 56.5458 29.4018 56.6363 29.4018 56.7269C29.4018 56.8175 29.4018 56.9116 29.4018 56.995C29.398 57.0553 29.398 57.1158 29.4018 57.1761C29.4038 57.2269 29.4164 57.2766 29.4389 57.3222C29.4614 57.3678 29.4932 57.4081 29.5322 57.4405C29.6047 57.4913 29.7387 57.4623 29.9307 57.35C30.0943 57.2681 30.2322 57.1428 30.3292 56.9877C30.4039 56.8567 30.4485 56.7107 30.4596 56.5603V56.5711Z" fill="#FAFAFA"/>
</g>
</g>
</svg>
